<?xml version="1.0" encoding="UTF-8"?>
<svg xmlns="http://www.w3.org/2000/svg" width="1200" height="320" viewBox="0 0 1200 320">
<g transform="translate(42 34) scale(0.4921875)"><path d="M112 420V224C112 126 170 64 256 64s144 62 144 160v196h-58V226c0-62-32-104-86-104s-86 42-86 104v194z" fill="#26382A"/><path d="M256 166c-54 22-82 63-82 120 48-8 78-32 92-74 7 42 32 70 76 84 5-60-24-104-86-130z" fill="#B7673C"/><circle cx="256" cy="357" r="31" fill="#B7673C"/></g>
<path d="M 367.044 172.628 L 362.544 173.6 L 374.712 141.704 Q 375.576 139.364 376.746 138.482 Q 377.916 137.6 379.968 137.6 L 392.136 137.6 Q 393.504 137.6 394.152 138.14 Q 394.8 138.68 394.8 139.688 Q 394.8 140.516 394.368 141.074 Q 393.936 141.632 393.108 141.92 L 391.524 142.424 Q 390.336 142.82 389.922 143.45 Q 389.508 144.08 389.616 145.448 L 392.1 180.512 Q 392.172 181.808 392.586 182.33 Q 393 182.852 394.008 183.176 L 395.556 183.68 Q 396.348 183.932 396.744 184.472 Q 397.14 185.012 397.14 185.804 Q 397.14 186.74 396.492 187.37 Q 395.844 188 394.476 188 L 375.792 188 Q 374.388 188 373.722 187.442 Q 373.056 186.884 373.056 185.912 Q 373.056 185.12 373.452 184.544 Q 373.848 183.968 374.784 183.68 L 376.404 183.176 Q 377.592 182.78 377.988 182.204 Q 378.384 181.628 378.312 180.512 L 375.504 143.828 L 379.572 143.54 L 364.632 182.888 Q 363.804 185.156 362.922 185.786 Q 362.04 186.416 360.816 186.416 Q 359.916 186.416 359.196 186.2 Q 358.476 185.984 357.828 185.192 Q 357.18 184.4 356.496 182.672 L 341.304 144.764 L 345.228 143.792 L 342.312 179.36 Q 342.168 180.98 342.996 181.826 Q 343.824 182.672 345.156 183.32 L 346.524 183.932 Q 347.136 184.22 347.478 184.67 Q 347.82 185.12 347.82 185.84 Q 347.82 186.812 347.172 187.406 Q 346.524 188 345.156 188 L 334.14 188 Q 332.772 188 332.124 187.442 Q 331.476 186.884 331.476 185.912 Q 331.476 184.976 331.998 184.472 Q 332.52 183.968 333.384 183.572 L 334.464 183.176 Q 335.652 182.672 336.408 181.808 Q 337.164 180.944 337.308 179.324 L 340.044 146.528 Q 340.188 144.656 339.756 143.738 Q 339.324 142.82 338.1 142.424 L 336.552 141.956 Q 335.652 141.668 335.22 141.11 Q 334.788 140.552 334.788 139.688 Q 334.788 137.6 337.488 137.6 L 349.512 137.6 Q 351.42 137.6 352.59 138.392 Q 353.76 139.184 354.66 141.56 Z M 432.675 136.232 Q 438.759 136.232 443.655 138.176 Q 448.551 140.12 452.007 143.684 Q 455.463 147.248 457.299 152.18 Q 459.135 157.112 459.135 163.124 Q 459.135 168.704 457.299 173.492 Q 455.463 178.28 452.043 181.844 Q 448.623 185.408 443.799 187.406 Q 438.975 189.404 432.963 189.404 Q 426.879 189.404 422.019 187.46 Q 417.159 185.516 413.685 181.952 Q 410.211 178.388 408.375 173.456 Q 406.539 168.524 406.539 162.512 Q 406.539 156.932 408.357 152.144 Q 410.175 147.356 413.595 143.792 Q 417.015 140.228 421.839 138.23 Q 426.663 136.232 432.675 136.232 Z M 444.807 171.26 Q 444.807 166.472 443.979 161.972 Q 443.151 157.472 441.693 153.602 Q 440.235 149.732 438.327 146.852 Q 436.419 143.972 434.241 142.334 Q 432.063 140.696 429.795 140.696 Q 427.059 140.696 425.079 142.298 Q 423.099 143.9 422.037 146.942 Q 420.975 149.984 420.975 154.376 Q 420.975 159.2 421.803 163.7 Q 422.631 168.2 424.089 172.052 Q 425.547 175.904 427.455 178.802 Q 429.363 181.7 431.541 183.338 Q 433.719 184.976 435.951 184.976 Q 438.759 184.976 440.721 183.374 Q 442.683 181.772 443.745 178.712 Q 444.807 175.652 444.807 171.26 Z M 518.502 155.096 Q 518.502 158.444 516.954 161.234 Q 515.406 164.024 512.562 165.914 Q 509.718 167.804 505.722 168.524 Q 504.03 168.812 502.626 169.19 Q 501.222 169.568 499.782 169.838 Q 498.342 170.108 496.542 170.108 Q 494.346 170.108 492.402 169.784 Q 490.458 169.46 488.856 168.884 Q 487.254 168.308 485.994 167.552 L 486.102 163.592 Q 487.11 164.312 488.316 164.78 Q 489.522 165.248 490.98 165.5 Q 492.438 165.752 494.13 165.752 Q 498.882 165.752 501.546 163.178 Q 504.21 160.604 504.21 155.348 Q 504.21 151.352 502.626 148.274 Q 501.042 145.196 498.198 143.414 Q 495.354 141.632 491.646 141.632 L 489.342 141.632 L 489.342 180.944 Q 489.342 181.808 489.72 182.33 Q 490.098 182.852 490.89 183.176 L 492.618 183.644 Q 493.626 184.112 493.968 184.616 Q 494.31 185.12 494.31 185.912 Q 494.31 188 491.682 188 L 472.854 188 Q 471.486 188 470.838 187.442 Q 470.19 186.884 470.19 185.912 Q 470.19 184.256 471.882 183.644 L 473.574 183.176 Q 474.51 182.852 474.96 182.33 Q 475.41 181.808 475.41 180.944 L 475.41 144.656 Q 475.41 143.792 474.96 143.27 Q 474.51 142.748 473.574 142.424 L 471.882 141.956 Q 470.19 141.344 470.19 139.688 Q 470.19 138.68 470.838 138.14 Q 471.486 137.6 472.854 137.6 L 492.186 137.6 Q 500.682 137.6 506.55 139.832 Q 512.418 142.064 515.46 146.006 Q 518.502 149.948 518.502 155.096 Z M 495.714 168.344 L 509.286 166.832 L 517.926 181.088 Q 518.574 182.168 519.186 182.744 Q 519.798 183.32 520.806 183.68 Q 521.85 184.076 522.246 184.598 Q 522.642 185.12 522.642 185.912 Q 522.642 186.884 521.994 187.442 Q 521.346 188 519.978 188 L 503.382 188 Q 500.826 188 500.826 185.912 Q 500.826 185.408 501.06 185.012 Q 501.294 184.616 501.87 184.292 L 502.626 184.004 Q 503.31 183.572 503.418 183.086 Q 503.526 182.6 503.022 181.7 Z M 580.591 155.096 Q 580.591 158.444 579.043 161.234 Q 577.495 164.024 574.651 165.914 Q 571.807 167.804 567.811 168.524 Q 566.119 168.812 564.715 169.19 Q 563.311 169.568 561.871 169.838 Q 560.431 170.108 558.631 170.108 Q 556.435 170.108 554.491 169.784 Q 552.547 169.46 550.945 168.884 Q 549.343 168.308 548.083 167.552 L 548.191 163.592 Q 549.199 164.312 550.405 164.78 Q 551.611 165.248 553.069 165.5 Q 554.527 165.752 556.219 165.752 Q 560.971 165.752 563.635 163.178 Q 566.299 160.604 566.299 155.348 Q 566.299 151.352 564.715 148.274 Q 563.131 145.196 560.287 143.414 Q 557.443 141.632 553.735 141.632 L 551.431 141.632 L 551.431 180.944 Q 551.431 181.808 551.809 182.33 Q 552.187 182.852 552.979 183.176 L 554.707 183.644 Q 555.715 184.112 556.057 184.616 Q 556.399 185.12 556.399 185.912 Q 556.399 188 553.771 188 L 534.943 188 Q 533.575 188 532.927 187.442 Q 532.279 186.884 532.279 185.912 Q 532.279 184.256 533.971 183.644 L 535.663 183.176 Q 536.599 182.852 537.049 182.33 Q 537.499 181.808 537.499 180.944 L 537.499 144.656 Q 537.499 143.792 537.049 143.27 Q 536.599 142.748 535.663 142.424 L 533.971 141.956 Q 532.279 141.344 532.279 139.688 Q 532.279 138.68 532.927 138.14 Q 533.575 137.6 534.943 137.6 L 554.275 137.6 Q 562.771 137.6 568.639 139.832 Q 574.507 142.064 577.549 146.006 Q 580.591 149.948 580.591 155.096 Z M 557.803 168.344 L 571.375 166.832 L 580.015 181.088 Q 580.663 182.168 581.275 182.744 Q 581.887 183.32 582.895 183.68 Q 583.939 184.076 584.335 184.598 Q 584.731 185.12 584.731 185.912 Q 584.731 186.884 584.083 187.442 Q 583.435 188 582.067 188 L 565.471 188 Q 562.915 188 562.915 185.912 Q 562.915 185.408 563.149 185.012 Q 563.383 184.616 563.959 184.292 L 564.715 184.004 Q 565.399 183.572 565.507 183.086 Q 565.615 182.6 565.111 181.7 Z M 619.568 136.232 Q 625.652 136.232 630.548 138.176 Q 635.444 140.12 638.9 143.684 Q 642.356 147.248 644.192 152.18 Q 646.028 157.112 646.028 163.124 Q 646.028 168.704 644.192 173.492 Q 642.356 178.28 638.936 181.844 Q 635.516 185.408 630.692 187.406 Q 625.868 189.404 619.856 189.404 Q 613.772 189.404 608.912 187.46 Q 604.052 185.516 600.578 181.952 Q 597.104 178.388 595.268 173.456 Q 593.432 168.524 593.432 162.512 Q 593.432 156.932 595.25 152.144 Q 597.068 147.356 600.488 143.792 Q 603.908 140.228 608.732 138.23 Q 613.556 136.232 619.568 136.232 Z M 631.7 171.26 Q 631.7 166.472 630.872 161.972 Q 630.044 157.472 628.586 153.602 Q 627.128 149.732 625.22 146.852 Q 623.312 143.972 621.134 142.334 Q 618.956 140.696 616.688 140.696 Q 613.952 140.696 611.972 142.298 Q 609.992 143.9 608.93 146.942 Q 607.868 149.984 607.868 154.376 Q 607.868 159.2 608.696 163.7 Q 609.524 168.2 610.982 172.052 Q 612.44 175.904 614.348 178.802 Q 616.256 181.7 618.434 183.338 Q 620.612 184.976 622.844 184.976 Q 625.652 184.976 627.614 183.374 Q 629.576 181.772 630.638 178.712 Q 631.7 175.652 631.7 171.26 Z M 691.211 148.256 L 695.999 149.12 L 686.027 180.728 Q 685.703 181.664 685.541 182.51 Q 685.379 183.356 685.379 184.508 L 685.379 185.912 Q 685.379 186.92 684.803 187.46 Q 684.227 188 683.327 188 L 672.959 188 Q 672.023 188 671.447 187.46 Q 670.871 186.92 670.871 185.912 L 670.871 184.508 Q 670.871 183.824 670.763 183.302 Q 670.655 182.78 670.295 181.628 L 659.135 144.836 Q 658.775 143.684 658.289 143.144 Q 657.803 142.604 656.939 142.244 L 655.535 141.74 Q 654.743 141.452 654.419 140.876 Q 654.095 140.3 654.095 139.616 Q 654.095 138.68 654.743 138.14 Q 655.391 137.6 656.723 137.6 L 675.119 137.6 Q 676.487 137.6 677.135 138.14 Q 677.783 138.68 677.783 139.652 Q 677.783 141.092 676.271 141.596 L 674.579 141.992 Q 673.679 142.244 673.499 143.09 Q 673.319 143.936 673.751 145.484 L 684.335 180.944 L 679.727 184.148 Z M 715.871 139.688 Q 715.871 138.68 716.537 138.14 Q 717.203 137.6 718.535 137.6 L 729.299 137.6 Q 730.667 137.6 731.297 138.158 Q 731.927 138.716 731.927 139.652 Q 731.927 140.372 731.585 140.822 Q 731.243 141.272 730.235 141.704 L 729.083 142.208 Q 727.823 142.784 726.995 143.864 Q 726.167 144.944 725.555 147.176 L 716.123 180.728 Q 715.763 182.132 715.619 182.852 Q 715.475 183.572 715.475 184.508 L 715.475 185.912 Q 715.475 186.92 714.899 187.46 Q 714.323 188 713.423 188 L 702.695 188 Q 701.831 188 701.237 187.46 Q 700.643 186.92 700.643 185.912 L 700.643 184.508 Q 700.643 183.932 700.571 183.356 Q 700.499 182.78 700.139 181.592 L 689.447 144.836 Q 689.015 143.288 688.673 142.802 Q 688.331 142.316 687.683 142.064 L 686.315 141.56 Q 685.523 141.236 685.181 140.786 Q 684.839 140.336 684.839 139.688 Q 684.839 138.68 685.505 138.14 Q 686.171 137.6 687.503 137.6 L 705.287 137.6 Q 706.655 137.6 707.303 138.14 Q 707.951 138.68 707.951 139.688 Q 707.951 140.408 707.537 140.912 Q 707.123 141.416 706.259 141.704 L 704.711 142.064 Q 703.847 142.316 703.649 143.036 Q 703.451 143.756 703.919 145.52 L 714.035 180.98 L 709.931 184.04 L 720.587 146.6 Q 721.091 144.836 720.713 143.738 Q 720.335 142.64 718.679 141.992 L 717.275 141.596 Q 716.555 141.272 716.213 140.822 Q 715.871 140.372 715.871 139.688 Z  M 789.511 137.6 Q 791.023 137.6 792.049 137.276 Q 793.075 136.952 793.903 136.664 Q 794.731 136.376 795.595 136.376 Q 797.035 136.376 797.773 137.078 Q 798.511 137.78 798.979 139.508 L 802.039 150.236 Q 802.327 151.208 801.769 151.892 Q 801.211 152.576 800.167 152.72 Q 799.339 152.864 798.547 152.54 Q 797.755 152.216 797.215 151.172 Q 795.379 147.356 793.705 145.394 Q 792.031 143.432 790.213 142.73 Q 788.395 142.028 786.091 142.028 L 780.187 142.028 L 780.187 180.944 Q 780.187 181.808 780.601 182.402 Q 781.015 182.996 781.987 183.176 L 784.651 183.644 Q 785.695 183.824 786.145 184.364 Q 786.595 184.904 786.595 185.912 Q 786.595 186.884 785.947 187.442 Q 785.299 188 783.931 188 L 763.663 188 Q 762.295 188 761.647 187.442 Q 760.999 186.884 760.999 185.912 Q 760.999 184.256 762.727 183.644 L 764.419 183.176 Q 765.319 182.852 765.769 182.33 Q 766.219 181.808 766.219 180.944 L 766.219 144.656 Q 766.219 143.792 765.769 143.27 Q 765.319 142.748 764.419 142.424 L 762.727 141.956 Q 760.999 141.344 760.999 139.688 Q 760.999 138.68 761.647 138.14 Q 762.295 137.6 763.663 137.6 Z M 774.931 161.792 L 785.623 161.792 Q 787.855 161.792 788.809 160.91 Q 789.763 160.028 790.483 157.364 Q 790.771 156.428 791.311 156.032 Q 791.851 155.636 792.607 155.6 Q 794.407 155.564 794.839 157.328 L 797.575 168.416 Q 797.863 169.532 797.521 170.162 Q 797.179 170.792 796.387 171.08 Q 795.487 171.368 794.731 171.098 Q 793.975 170.828 793.327 169.928 Q 792.319 168.416 791.473 167.588 Q 790.627 166.76 789.511 166.436 Q 788.395 166.112 786.631 166.112 L 774.931 166.112 Z M 830.778 180.944 Q 830.778 181.808 831.246 182.33 Q 831.714 182.852 832.614 183.176 L 834.306 183.644 Q 835.998 184.256 835.998 185.912 Q 835.998 186.884 835.368 187.442 Q 834.738 188 833.37 188 L 814.29 188 Q 812.922 188 812.274 187.442 Q 811.626 186.884 811.626 185.912 Q 811.626 184.256 813.318 183.644 L 815.01 183.176 Q 815.946 182.852 816.396 182.33 Q 816.846 181.808 816.846 180.944 L 816.846 144.656 Q 816.846 143.792 816.396 143.27 Q 815.946 142.748 815.01 142.424 L 813.318 141.956 Q 811.626 141.344 811.626 139.688 Q 811.626 138.68 812.274 138.14 Q 812.922 137.6 814.29 137.6 L 833.37 137.6 Q 834.738 137.6 835.368 138.14 Q 835.998 138.68 835.998 139.688 Q 835.998 141.344 834.306 141.956 L 832.614 142.424 Q 831.714 142.748 831.246 143.27 Q 830.778 143.792 830.778 144.656 Z M 861.885 160.388 L 872.361 160.388 Q 874.557 160.388 875.493 159.524 Q 876.429 158.66 877.041 156.14 Q 877.329 155.096 877.905 154.61 Q 878.481 154.124 879.273 154.088 Q 880.929 154.052 881.397 155.924 L 884.133 166.94 Q 884.421 168.092 884.133 168.758 Q 883.845 169.424 882.945 169.712 Q 882.045 170 881.289 169.766 Q 880.533 169.532 880.029 168.74 Q 878.949 167.084 878.049 166.22 Q 877.149 165.356 876.051 165.032 Q 874.953 164.708 873.225 164.708 L 861.885 164.708 Z M 847.989 139.688 Q 847.989 138.68 848.637 138.14 Q 849.285 137.6 850.653 137.6 L 877.869 137.6 Q 879.345 137.6 880.317 137.258 Q 881.289 136.916 882.135 136.574 Q 882.981 136.232 884.097 136.232 Q 885.465 136.232 886.167 137.006 Q 886.869 137.78 887.373 139.508 L 890.361 149.588 Q 890.685 150.704 890.343 151.442 Q 890.001 152.18 889.029 152.504 Q 887.913 152.9 887.031 152.486 Q 886.149 152.072 885.609 151.028 Q 884.169 148.22 882.909 146.438 Q 881.649 144.656 880.353 143.702 Q 879.057 142.748 877.599 142.388 Q 876.141 142.028 874.305 142.028 L 867.177 142.028 L 867.177 179.576 Q 867.177 181.592 868.239 182.582 Q 869.301 183.572 871.353 183.572 L 875.349 183.572 Q 877.941 183.572 879.867 182.762 Q 881.793 181.952 883.539 179.648 Q 885.285 177.344 887.301 172.952 Q 887.769 171.944 888.543 171.584 Q 889.317 171.224 890.289 171.404 Q 891.369 171.584 891.855 172.376 Q 892.341 173.168 892.017 174.356 L 888.813 186.02 Q 888.309 187.712 887.589 188.504 Q 886.869 189.296 885.357 189.296 Q 884.385 189.296 883.557 188.972 Q 882.729 188.648 881.739 188.324 Q 880.749 188 879.309 188 L 850.653 188 Q 849.285 188 848.637 187.442 Q 847.989 186.884 847.989 185.912 Q 847.989 184.256 849.717 183.644 L 851.409 183.176 Q 852.309 182.852 852.759 182.33 Q 853.209 181.808 853.209 180.944 L 853.209 144.656 Q 853.209 143.792 852.759 143.27 Q 852.309 142.748 851.409 142.424 L 849.717 141.956 Q 847.989 141.344 847.989 139.688 Z M 924.427 141.956 L 922.735 142.424 Q 921.835 142.748 921.367 143.27 Q 920.899 143.792 920.899 144.656 L 920.899 180.944 Q 920.899 182.384 921.655 182.978 Q 922.411 183.572 923.923 183.572 L 928.279 183.572 Q 930.259 183.572 931.681 183.032 Q 933.103 182.492 934.309 181.07 Q 935.515 179.648 936.775 176.948 L 939.043 171.98 Q 939.583 170.9 940.357 170.522 Q 941.131 170.144 942.175 170.432 Q 943.219 170.72 943.651 171.44 Q 944.083 172.16 943.759 173.384 L 940.339 186.02 Q 939.835 187.712 939.097 188.522 Q 938.359 189.332 936.919 189.332 Q 936.055 189.332 935.209 188.99 Q 934.363 188.648 933.337 188.324 Q 932.311 188 930.835 188 L 904.411 188 Q 903.043 188 902.395 187.442 Q 901.747 186.884 901.747 185.912 Q 901.747 184.256 903.439 183.644 L 905.131 183.176 Q 906.067 182.852 906.517 182.33 Q 906.967 181.808 906.967 180.944 L 906.967 144.656 Q 906.967 143.792 906.517 143.27 Q 906.067 142.748 905.131 142.424 L 903.439 141.956 Q 901.747 141.344 901.747 139.688 Q 901.747 138.68 902.395 138.14 Q 903.043 137.6 904.411 137.6 L 923.491 137.6 Q 924.859 137.6 925.489 138.14 Q 926.119 138.68 926.119 139.688 Q 926.119 141.344 924.427 141.956 Z M 953.561 185.912 Q 953.561 184.256 955.289 183.644 L 956.981 183.176 Q 957.881 182.852 958.331 182.33 Q 958.781 181.808 958.781 180.944 L 958.781 144.656 Q 958.781 143.792 958.331 143.27 Q 957.881 142.748 956.981 142.424 L 955.289 141.956 Q 953.561 141.344 953.561 139.688 Q 953.561 138.68 954.209 138.14 Q 954.857 137.6 956.225 137.6 L 976.997 137.6 Q 983.657 137.6 989.093 139.58 Q 994.529 141.56 998.453 145.16 Q 1002.377 148.76 1004.483 153.674 Q 1006.589 158.588 1006.589 164.492 Q 1006.589 171.296 1003.403 176.606 Q 1000.217 181.916 994.349 184.958 Q 988.481 188 980.381 188 L 956.225 188 Q 954.857 188 954.209 187.442 Q 953.561 186.884 953.561 185.912 Z M 978.761 183.572 Q 982.721 183.572 985.745 181.52 Q 988.769 179.468 990.497 175.202 Q 992.225 170.936 992.225 164.312 Q 992.225 159.092 991.073 154.97 Q 989.921 150.848 987.725 147.95 Q 985.529 145.052 982.415 143.54 Q 979.301 142.028 975.377 142.028 L 972.749 142.028 L 972.749 179.9 Q 972.749 181.808 973.775 182.69 Q 974.801 183.572 976.781 183.572 Z" fill="#26382A"/>
</svg>
