<?xml version="1.0" encoding="UTF-8"?>
<svg xmlns="http://www.w3.org/2000/svg" width="1200" height="320" viewBox="0 0 1200 320">
<g transform="translate(42 34) scale(0.4921875)"><path d="M256 48 438 153v210L256 468 74 363V153zm0 68-123 71v142l123 71 123-71V187z" fill="#162431"/><path d="M158 334V178h58l80 91v-91h58v156h-54l-84-95v95z" fill="#162431"/><path d="m256 90 35 61h-70z" fill="#E59C3A"/></g>
<path d="M 334.752 188 L 334.752 137.6 L 352.824 137.6 L 362.832 181.52 L 364.128 181.52 L 364.128 137.6 L 373.488 137.6 L 373.488 188 L 355.416 188 L 345.408 144.08 L 344.112 144.08 L 344.112 188 Z M 407.576 189.008 Q 398.072 189.008 392.456 183.788 Q 386.84 178.568 386.84 168.848 L 386.84 156.752 Q 386.84 147.032 392.456 141.812 Q 398.072 136.592 407.576 136.592 Q 417.08 136.592 422.696 141.812 Q 428.312 147.032 428.312 156.752 L 428.312 168.848 Q 428.312 178.568 422.696 183.788 Q 417.08 189.008 407.576 189.008 Z M 407.576 180.512 Q 412.904 180.512 415.856 177.416 Q 418.808 174.32 418.808 169.136 L 418.808 156.464 Q 418.808 151.28 415.856 148.184 Q 412.904 145.088 407.576 145.088 Q 402.32 145.088 399.332 148.184 Q 396.344 151.28 396.344 156.464 L 396.344 169.136 Q 396.344 174.32 399.332 177.416 Q 402.32 180.512 407.576 180.512 Z M 441.664 188 L 441.664 137.6 L 463.552 137.6 Q 468.304 137.6 471.832 139.256 Q 475.36 140.912 477.304 143.936 Q 479.248 146.96 479.248 151.064 L 479.248 151.928 Q 479.248 156.464 477.088 159.272 Q 474.928 162.08 471.76 163.376 L 471.76 164.672 Q 474.64 164.816 476.224 166.652 Q 477.808 168.488 477.808 171.512 L 477.808 188 L 468.304 188 L 468.304 172.88 Q 468.304 171.152 467.404 170.072 Q 466.504 168.992 464.416 168.992 L 451.168 168.992 L 451.168 188 Z M 451.168 160.352 L 462.544 160.352 Q 465.928 160.352 467.836 158.516 Q 469.744 156.68 469.744 153.656 L 469.744 152.936 Q 469.744 149.912 467.872 148.076 Q 466 146.24 462.544 146.24 L 451.168 146.24 Z M 502.968 188 L 502.968 146.24 L 488.28 146.24 L 488.28 137.6 L 527.16 137.6 L 527.16 146.24 L 512.472 146.24 L 512.472 188 Z M 538.64 188 L 538.64 137.6 L 548.144 137.6 L 548.144 158.408 L 566.864 158.408 L 566.864 137.6 L 576.368 137.6 L 576.368 188 L 566.864 188 L 566.864 167.048 L 548.144 167.048 L 548.144 188 Z M 590.872 188 L 590.872 137.6 L 600.376 137.6 L 600.376 179.36 L 623.416 179.36 L 623.416 188 Z M 634.896 188 L 634.896 137.6 L 644.4 137.6 L 644.4 188 Z M 658.904 188 L 658.904 137.6 L 676.976 137.6 L 686.984 181.52 L 688.28 181.52 L 688.28 137.6 L 697.64 137.6 L 697.64 188 L 679.568 188 L 669.56 144.08 L 668.264 144.08 L 668.264 188 Z M 712.144 188 L 712.144 137.6 L 744.544 137.6 L 744.544 146.24 L 721.648 146.24 L 721.648 158.264 L 742.528 158.264 L 742.528 166.904 L 721.648 166.904 L 721.648 179.36 L 744.976 179.36 L 744.976 188 Z  M 783.776 188 L 777.152 137.6 L 786.584 137.6 L 791.48 181.376 L 792.776 181.376 L 799.112 137.6 L 815.528 137.6 L 821.864 181.376 L 823.16 181.376 L 828.056 137.6 L 837.488 137.6 L 830.864 188 L 814.448 188 L 807.968 143.216 L 806.672 143.216 L 800.192 188 Z M 868.552 189.008 Q 859.048 189.008 853.432 183.788 Q 847.816 178.568 847.816 168.848 L 847.816 156.752 Q 847.816 147.032 853.432 141.812 Q 859.048 136.592 868.552 136.592 Q 878.056 136.592 883.672 141.812 Q 889.288 147.032 889.288 156.752 L 889.288 168.848 Q 889.288 178.568 883.672 183.788 Q 878.056 189.008 868.552 189.008 Z M 868.552 180.512 Q 873.88 180.512 876.832 177.416 Q 879.784 174.32 879.784 169.136 L 879.784 156.464 Q 879.784 151.28 876.832 148.184 Q 873.88 145.088 868.552 145.088 Q 863.296 145.088 860.308 148.184 Q 857.32 151.28 857.32 156.464 L 857.32 169.136 Q 857.32 174.32 860.308 177.416 Q 863.296 180.512 868.552 180.512 Z M 902.64 188 L 902.64 137.6 L 924.528 137.6 Q 929.28 137.6 932.808 139.256 Q 936.336 140.912 938.28 143.936 Q 940.224 146.96 940.224 151.064 L 940.224 151.928 Q 940.224 156.464 938.064 159.272 Q 935.904 162.08 932.736 163.376 L 932.736 164.672 Q 935.616 164.816 937.2 166.652 Q 938.784 168.488 938.784 171.512 L 938.784 188 L 929.28 188 L 929.28 172.88 Q 929.28 171.152 928.38 170.072 Q 927.48 168.992 925.392 168.992 L 912.144 168.992 L 912.144 188 Z M 912.144 160.352 L 923.52 160.352 Q 926.904 160.352 928.812 158.516 Q 930.72 156.68 930.72 153.656 L 930.72 152.936 Q 930.72 149.912 928.848 148.076 Q 926.976 146.24 923.52 146.24 L 912.144 146.24 Z M 953.144 188 L 953.144 137.6 L 962.648 137.6 L 962.648 157.616 L 963.944 157.616 L 980.288 137.6 L 992.456 137.6 L 971.432 162.44 L 993.176 188 L 980.648 188 L 963.944 167.552 L 962.648 167.552 L 962.648 188 Z M 1020.136 189.008 Q 1014.304 189.008 1009.84 186.92 Q 1005.376 184.832 1002.856 180.944 Q 1000.336 177.056 1000.336 171.584 L 1000.336 169.568 L 1009.696 169.568 L 1009.696 171.584 Q 1009.696 176.12 1012.504 178.388 Q 1015.312 180.656 1020.136 180.656 Q 1025.032 180.656 1027.444 178.712 Q 1029.856 176.768 1029.856 173.744 Q 1029.856 171.656 1028.668 170.36 Q 1027.48 169.064 1025.212 168.236 Q 1022.944 167.408 1019.704 166.688 L 1018.048 166.328 Q 1012.864 165.176 1009.156 163.412 Q 1005.448 161.648 1003.468 158.768 Q 1001.488 155.888 1001.488 151.28 Q 1001.488 146.672 1003.684 143.396 Q 1005.88 140.12 1009.876 138.356 Q 1013.872 136.592 1019.272 136.592 Q 1024.672 136.592 1028.884 138.428 Q 1033.096 140.264 1035.508 143.9 Q 1037.92 147.536 1037.92 153.008 L 1037.92 155.168 L 1028.56 155.168 L 1028.56 153.008 Q 1028.56 150.128 1027.444 148.364 Q 1026.328 146.6 1024.24 145.772 Q 1022.152 144.944 1019.272 144.944 Q 1014.952 144.944 1012.9 146.564 Q 1010.848 148.184 1010.848 150.992 Q 1010.848 152.864 1011.82 154.16 Q 1012.792 155.456 1014.736 156.32 Q 1016.68 157.184 1019.704 157.832 L 1021.36 158.192 Q 1026.76 159.344 1030.756 161.144 Q 1034.752 162.944 1036.984 165.896 Q 1039.216 168.848 1039.216 173.456 Q 1039.216 178.064 1036.876 181.556 Q 1034.536 185.048 1030.252 187.028 Q 1025.968 189.008 1020.136 189.008 Z" fill="#162431"/>
</svg>
