<svg xmlns="http://www.w3.org/2000/svg" width="1080" height="1440" viewBox="0 0 1080 1440" role="img" aria-labelledby="title desc"><title id="title">TikTok organic photo carousel slide</title><desc id="desc">A deterministic 3:4 editorial slide with content-responsive spacing and optional pattern interruption.</desc><rect width="1080" height="1440" fill="#0B1020"/><rect id="carousel-story-spine" x="75.6" y="100.8" width="7" height="1150.56" fill="#FDCB6E"/><rect id="carousel-header-rule" x="135.6" y="156.8" width="793.2" height="2" fill="#F7F8FC"/><rect id="carousel-type-field" x="91.6" y="184.8" width="821.2" height="600" fill="#171D32"/><rect id="carousel-type-field-accent" x="91.6" y="184.8" width="14" height="104" fill="#FDCB6E"/><rect id="carousel-field-index" x="878.8" y="184.8" width="34" height="34" fill="#FDCB6E"/><rect id="carousel-field-rule" x="91.6" y="784.8" width="821.2" height="3" fill="#F7F8FC"/><g id="eyebrow" role="group" aria-label="GLYPHKILN / SHIP 04"><path id="eyebrow-line-0" d="M 145.693 140.241 Q 143.039 140.241 141.04 139.067 Q 139.04 137.893 137.917 135.716 Q 136.793 133.538 136.793 130.555 Q 136.793 127.483 137.961 125.305 Q 139.129 123.128 141.122 121.973 Q 143.116 120.818 145.604 120.818 Q 147.204 120.818 148.581 121.281 Q 149.958 121.744 151.031 122.595 Q 152.104 123.446 152.783 124.607 Q 153.462 125.769 153.665 127.178 L 149.73 127.178 Q 149.527 126.492 149.165 125.953 Q 148.803 125.413 148.289 125.032 Q 147.775 124.652 147.115 124.455 Q 146.454 124.258 145.667 124.258 Q 144.207 124.258 143.09 124.988 Q 141.973 125.718 141.351 127.114 Q 140.729 128.511 140.729 130.517 Q 140.729 132.523 141.345 133.925 Q 141.96 135.328 143.078 136.065 Q 144.195 136.801 145.718 136.801 Q 147.089 136.801 148.067 136.306 Q 149.044 135.811 149.571 134.89 Q 150.098 133.97 150.098 132.738 L 150.911 132.853 L 145.985 132.853 L 145.985 129.907 L 153.856 129.907 L 153.856 132.269 Q 153.856 134.757 152.802 136.541 Q 151.748 138.324 149.908 139.283 Q 148.067 140.241 145.693 140.241 Z M 156.829 139.988 L 156.829 121.071 L 160.701 121.071 L 160.701 136.776 L 168.864 136.776 L 168.864 139.988 Z M 175.192 139.988 L 175.192 132.878 L 168.184 121.071 L 172.717 121.071 L 175.916 126.962 Q 176.411 127.851 176.792 128.727 Q 177.173 129.603 177.579 130.821 L 176.728 130.821 Q 177.122 129.59 177.49 128.714 Q 177.858 127.838 178.328 126.962 L 181.425 121.071 L 185.945 121.071 L 179.051 132.878 L 179.051 139.988 Z M 188.28 139.988 L 188.28 121.071 L 195.656 121.071 Q 197.814 121.071 199.325 121.89 Q 200.836 122.709 201.629 124.15 Q 202.423 125.591 202.423 127.457 Q 202.423 129.336 201.616 130.764 Q 200.81 132.193 199.28 132.999 Q 197.751 133.805 195.567 133.805 L 190.819 133.805 L 190.819 130.682 L 194.945 130.682 Q 196.138 130.682 196.906 130.269 Q 197.674 129.857 198.049 129.133 Q 198.424 128.409 198.424 127.457 Q 198.424 126.505 198.049 125.788 Q 197.674 125.071 196.9 124.671 Q 196.126 124.271 194.932 124.271 L 192.152 124.271 L 192.152 139.988 Z M 205.132 139.988 L 205.132 121.071 L 209.004 121.071 L 209.004 128.714 L 217.244 128.714 L 217.244 121.071 L 221.128 121.071 L 221.128 139.988 L 217.244 139.988 L 217.244 131.926 L 209.004 131.926 L 209.004 139.988 Z M 227.407 135.709 L 227.407 132.18 Q 227.991 131.126 228.549 130.238 Q 229.108 129.349 229.781 128.454 Q 230.454 127.559 231.317 126.505 L 235.951 121.071 L 240.686 121.071 L 232.701 130.314 L 232.383 130.199 Z M 224.55 139.988 L 224.55 121.071 L 228.423 121.071 L 228.423 126.238 L 228.359 131.063 L 228.423 132.954 L 228.423 139.988 Z M 236.306 139.988 L 230.695 131.456 L 233.145 128.562 L 240.889 139.988 Z M 247.118 121.071 L 247.118 139.988 L 243.246 139.988 L 243.246 121.071 Z M 250.544 139.988 L 250.544 121.071 L 254.416 121.071 L 254.416 136.776 L 262.579 136.776 L 262.579 139.988 Z M 265.245 139.988 L 265.245 121.071 L 269.562 121.071 L 275.541 130.644 Q 275.998 131.38 276.468 132.243 Q 276.938 133.107 277.426 134.16 Q 277.915 135.214 278.398 136.534 L 278.004 136.534 Q 277.915 135.481 277.845 134.287 Q 277.776 133.094 277.725 132.002 Q 277.674 130.91 277.674 130.149 L 277.674 121.071 L 281.635 121.071 L 281.635 139.988 L 277.306 139.988 L 271.872 131.304 Q 271.276 130.326 270.768 129.406 Q 270.26 128.486 269.708 127.375 Q 269.155 126.264 268.394 124.715 L 268.889 124.715 Q 268.965 126.086 269.041 127.343 Q 269.117 128.6 269.162 129.622 Q 269.206 130.644 269.206 131.291 L 269.206 139.988 Z  M 299.257 120.183 L 293.164 142.831 L 289.863 142.831 L 295.957 120.183 Z  M 314.409 140.267 Q 312.137 140.267 310.455 139.569 Q 308.773 138.87 307.833 137.499 Q 306.894 136.128 306.843 134.122 L 310.614 134.122 Q 310.69 135.074 311.185 135.716 Q 311.68 136.357 312.505 136.674 Q 313.33 136.991 314.371 136.991 Q 315.412 136.991 316.18 136.693 Q 316.948 136.395 317.38 135.849 Q 317.812 135.303 317.812 134.579 Q 317.812 133.932 317.425 133.494 Q 317.037 133.056 316.314 132.738 Q 315.59 132.421 314.549 132.18 L 312.467 131.659 Q 310.068 131.075 308.709 129.825 Q 307.351 128.574 307.351 126.518 Q 307.351 124.804 308.271 123.522 Q 309.192 122.239 310.798 121.529 Q 312.404 120.818 314.46 120.818 Q 316.555 120.818 318.116 121.535 Q 319.678 122.252 320.554 123.528 Q 321.43 124.804 321.455 126.467 L 317.71 126.467 Q 317.609 125.324 316.739 124.702 Q 315.869 124.08 314.422 124.08 Q 313.445 124.08 312.746 124.36 Q 312.048 124.639 311.686 125.134 Q 311.324 125.629 311.324 126.264 Q 311.324 126.962 311.743 127.425 Q 312.162 127.889 312.861 128.175 Q 313.559 128.46 314.346 128.651 L 316.06 129.07 Q 317.253 129.336 318.281 129.793 Q 319.31 130.25 320.084 130.917 Q 320.859 131.583 321.284 132.497 Q 321.709 133.411 321.709 134.605 Q 321.709 136.319 320.846 137.594 Q 319.983 138.87 318.345 139.569 Q 316.707 140.267 314.409 140.267 Z M 324.502 139.988 L 324.502 121.071 L 328.374 121.071 L 328.374 128.714 L 336.614 128.714 L 336.614 121.071 L 340.498 121.071 L 340.498 139.988 L 336.614 139.988 L 336.614 131.926 L 328.374 131.926 L 328.374 139.988 Z M 347.793 121.071 L 347.793 139.988 L 343.92 139.988 L 343.92 121.071 Z M 351.218 139.988 L 351.218 121.071 L 358.594 121.071 Q 360.752 121.071 362.263 121.89 Q 363.774 122.709 364.567 124.15 Q 365.361 125.591 365.361 127.457 Q 365.361 129.336 364.555 130.764 Q 363.748 132.193 362.219 132.999 Q 360.689 133.805 358.505 133.805 L 353.757 133.805 L 353.757 130.682 L 357.883 130.682 Q 359.077 130.682 359.845 130.269 Q 360.613 129.857 360.987 129.133 Q 361.362 128.409 361.362 127.457 Q 361.362 126.505 360.987 125.788 Q 360.613 125.071 359.838 124.671 Q 359.064 124.271 357.871 124.271 L 355.09 124.271 L 355.09 139.988 Z  M 381.277 140.241 Q 378.89 140.241 377.202 139.092 Q 375.513 137.944 374.612 135.779 Q 373.711 133.614 373.711 130.542 Q 373.711 127.483 374.612 125.305 Q 375.513 123.128 377.202 121.973 Q 378.89 120.818 381.277 120.818 Q 383.664 120.818 385.359 121.979 Q 387.054 123.141 387.955 125.312 Q 388.856 127.483 388.856 130.542 Q 388.856 133.614 387.961 135.779 Q 387.066 137.944 385.371 139.092 Q 383.677 140.241 381.277 140.241 Z M 381.277 137.029 Q 382.445 137.029 383.251 136.268 Q 384.057 135.506 384.483 134.059 Q 384.908 132.612 384.908 130.542 Q 384.908 128.46 384.483 127 Q 384.057 125.54 383.251 124.779 Q 382.445 124.017 381.277 124.017 Q 380.122 124.017 379.309 124.785 Q 378.497 125.553 378.078 127.007 Q 377.659 128.46 377.659 130.542 Q 377.659 132.612 378.078 134.059 Q 378.497 135.506 379.309 136.268 Q 380.122 137.029 381.277 137.029 Z M 391.326 136.623 L 391.326 133.564 L 399.235 121.071 L 401.863 121.071 L 401.863 125.337 L 400.302 125.337 L 395.236 133.348 L 395.236 133.5 L 406.459 133.5 L 406.459 136.623 Z M 400.378 139.988 L 400.378 135.696 L 400.454 134.325 L 400.454 121.071 L 404.098 121.071 L 404.098 139.988 Z" fill="#F7F8FC"/></g><rect id="slide-number-background" x="774.8" y="100.8" width="154" height="50" fill="#FDCB6E"/><g id="slide-number" role="group" aria-label="04 / 04"><path id="slide-number-line-0" d="M 815.685 138.263 Q 813.39 138.263 811.766 137.158 Q 810.143 136.053 809.276 133.972 Q 808.409 131.891 808.409 128.937 Q 808.409 125.995 809.276 123.901 Q 810.143 121.808 811.766 120.697 Q 813.39 119.586 815.685 119.586 Q 817.98 119.586 819.609 120.703 Q 821.239 121.82 822.106 123.907 Q 822.972 125.995 822.972 128.937 Q 822.972 131.891 822.112 133.972 Q 821.251 136.053 819.622 137.158 Q 817.992 138.263 815.685 138.263 Z M 815.685 135.175 Q 816.808 135.175 817.583 134.442 Q 818.358 133.71 818.767 132.318 Q 819.176 130.926 819.176 128.937 Q 819.176 126.935 818.767 125.531 Q 818.358 124.127 817.583 123.395 Q 816.808 122.662 815.685 122.662 Q 814.574 122.662 813.793 123.401 Q 813.011 124.139 812.609 125.537 Q 812.206 126.935 812.206 128.937 Q 812.206 130.926 812.609 132.318 Q 813.011 133.71 813.793 134.442 Q 814.574 135.175 815.685 135.175 Z M 825.347 134.784 L 825.347 131.842 L 832.952 119.83 L 835.479 119.83 L 835.479 123.932 L 833.978 123.932 L 829.107 131.634 L 829.107 131.781 L 839.898 131.781 L 839.898 134.784 Z M 834.051 138.019 L 834.051 133.893 L 834.124 132.574 L 834.124 119.83 L 837.628 119.83 L 837.628 138.019 Z  M 856.321 118.976 L 850.462 140.753 L 847.288 140.753 L 853.147 118.976 Z  M 871 138.263 Q 868.706 138.263 867.082 137.158 Q 865.458 136.053 864.592 133.972 Q 863.725 131.891 863.725 128.937 Q 863.725 125.995 864.592 123.901 Q 865.458 121.808 867.082 120.697 Q 868.706 119.586 871 119.586 Q 873.295 119.586 874.925 120.703 Q 876.555 121.82 877.421 123.907 Q 878.288 125.995 878.288 128.937 Q 878.288 131.891 877.427 133.972 Q 876.567 136.053 874.937 137.158 Q 873.308 138.263 871 138.263 Z M 871 135.175 Q 872.123 135.175 872.899 134.442 Q 873.674 133.71 874.083 132.318 Q 874.492 130.926 874.492 128.937 Q 874.492 126.935 874.083 125.531 Q 873.674 124.127 872.899 123.395 Q 872.123 122.662 871 122.662 Q 869.89 122.662 869.108 123.401 Q 868.327 124.139 867.924 125.537 Q 867.521 126.935 867.521 128.937 Q 867.521 130.926 867.924 132.318 Q 868.327 133.71 869.108 134.442 Q 869.89 135.175 871 135.175 Z M 880.663 134.784 L 880.663 131.842 L 888.268 119.83 L 890.795 119.83 L 890.795 123.932 L 889.293 123.932 L 884.423 131.634 L 884.423 131.781 L 895.214 131.781 L 895.214 134.784 Z M 889.367 138.019 L 889.367 133.893 L 889.44 132.574 L 889.44 119.83 L 892.943 119.83 L 892.943 138.019 Z" fill="#0B1020"/></g><g id="headline" role="group" aria-label="Proof beats promises."><path id="headline-line-0" d="M 140.584 322.05 L 140.584 258.027 L 166.795 258.027 Q 174.014 258.027 179.256 260.82 Q 184.498 263.613 187.313 268.597 Q 190.127 273.581 190.127 280.155 Q 190.127 286.773 187.248 291.671 Q 184.37 296.57 179.041 299.32 Q 173.713 302.07 166.366 302.07 L 150.123 302.07 L 150.123 290.081 L 163.616 290.081 Q 167.182 290.081 169.588 288.835 Q 171.995 287.589 173.198 285.355 Q 174.401 283.12 174.401 280.155 Q 174.401 277.148 173.198 274.935 Q 171.995 272.722 169.567 271.519 Q 167.139 270.316 163.573 270.316 L 155.752 270.316 L 155.752 322.05 Z M 197.92 322.05 L 197.92 274.011 L 212.487 274.011 L 212.487 282.777 L 213.002 282.777 Q 214.291 278.007 217.278 275.708 Q 220.264 273.409 224.217 273.409 Q 225.248 273.409 226.387 273.538 Q 227.526 273.667 228.471 273.925 L 228.471 286.988 Q 227.397 286.601 225.657 286.407 Q 223.916 286.214 222.541 286.214 Q 219.791 286.214 217.6 287.439 Q 215.408 288.663 214.162 290.812 Q 212.916 292.96 212.916 295.839 L 212.916 322.05 Z M 254.73 322.952 Q 247.211 322.952 241.797 319.837 Q 236.382 316.722 233.482 311.157 Q 230.582 305.593 230.582 298.202 Q 230.582 290.769 233.482 285.204 Q 236.382 279.64 241.797 276.525 Q 247.211 273.409 254.73 273.409 Q 262.25 273.409 267.664 276.525 Q 273.078 279.64 275.957 285.204 Q 278.836 290.769 278.836 298.202 Q 278.836 305.593 275.957 311.157 Q 273.078 316.722 267.664 319.837 Q 262.25 322.952 254.73 322.952 Z M 254.73 311.48 Q 257.609 311.48 259.586 309.804 Q 261.562 308.128 262.572 305.12 Q 263.582 302.113 263.582 298.116 Q 263.582 294.12 262.572 291.134 Q 261.562 288.148 259.586 286.515 Q 257.609 284.882 254.73 284.882 Q 251.851 284.882 249.875 286.515 Q 247.898 288.148 246.888 291.134 Q 245.879 294.12 245.879 298.116 Q 245.879 302.113 246.888 305.12 Q 247.898 308.128 249.875 309.804 Q 251.851 311.48 254.73 311.48 Z M 309.194 322.952 Q 301.674 322.952 296.26 319.837 Q 290.846 316.722 287.946 311.157 Q 285.045 305.593 285.045 298.202 Q 285.045 290.769 287.946 285.204 Q 290.846 279.64 296.26 276.525 Q 301.674 273.409 309.194 273.409 Q 316.713 273.409 322.128 276.525 Q 327.542 279.64 330.42 285.204 Q 333.299 290.769 333.299 298.202 Q 333.299 305.593 330.42 311.157 Q 327.542 316.722 322.128 319.837 Q 316.713 322.952 309.194 322.952 Z M 309.194 311.48 Q 312.073 311.48 314.049 309.804 Q 316.026 308.128 317.036 305.12 Q 318.045 302.113 318.045 298.116 Q 318.045 294.12 317.036 291.134 Q 316.026 288.148 314.049 286.515 Q 312.073 284.882 309.194 284.882 Q 306.315 284.882 304.338 286.515 Q 302.362 288.148 301.352 291.134 Q 300.342 294.12 300.342 298.116 Q 300.342 302.113 301.352 305.12 Q 302.362 308.128 304.338 309.804 Q 306.315 311.48 309.194 311.48 Z M 369.888 274.011 L 369.888 285.14 L 337.275 285.14 L 337.275 274.011 Z M 345.353 322.05 L 345.353 271.433 Q 345.353 265.933 347.416 262.28 Q 349.478 258.628 353.173 256.823 Q 356.869 255.019 361.681 255.019 Q 364.861 255.019 367.675 255.513 Q 370.49 256.007 371.779 256.394 L 369.373 267.351 Q 368.513 267.136 367.353 266.943 Q 366.193 266.749 365.033 266.749 Q 362.369 266.749 361.316 267.974 Q 360.263 269.198 360.263 271.304 L 360.263 322.05 Z  M 425.485 322.738 Q 421.832 322.738 419.147 321.513 Q 416.461 320.288 414.699 318.355 Q 412.938 316.421 411.992 314.273 L 411.477 314.273 L 411.477 322.05 L 396.653 322.05 L 396.653 258.027 L 411.649 258.027 L 411.649 282.261 L 411.992 282.261 Q 412.895 280.07 414.635 278.05 Q 416.375 276.03 419.061 274.72 Q 421.746 273.409 425.57 273.409 Q 430.641 273.409 435.002 276.052 Q 439.363 278.695 442.049 284.173 Q 444.735 289.652 444.735 298.073 Q 444.735 306.238 442.156 311.716 Q 439.578 317.195 435.195 319.966 Q 430.813 322.738 425.485 322.738 Z M 420.371 311.05 Q 423.25 311.05 425.248 309.439 Q 427.246 307.827 428.278 304.884 Q 429.309 301.941 429.309 298.073 Q 429.309 294.163 428.278 291.263 Q 427.246 288.363 425.27 286.751 Q 423.293 285.14 420.371 285.14 Q 417.492 285.14 415.473 286.708 Q 413.453 288.277 412.379 291.177 Q 411.305 294.077 411.305 298.073 Q 411.305 301.984 412.379 304.905 Q 413.453 307.827 415.494 309.439 Q 417.535 311.05 420.371 311.05 Z M 475.143 322.952 Q 467.623 322.952 462.166 319.966 Q 456.709 316.98 453.809 311.437 Q 450.908 305.894 450.908 298.202 Q 450.908 290.812 453.809 285.226 Q 456.709 279.64 462.037 276.525 Q 467.365 273.409 474.584 273.409 Q 479.654 273.409 483.887 274.999 Q 488.119 276.589 491.235 279.704 Q 494.35 282.82 496.047 287.374 Q 497.744 291.929 497.744 297.902 L 497.744 301.683 L 456.236 301.683 L 456.236 292.96 L 490.611 292.96 L 483.608 295.023 Q 483.608 291.671 482.598 289.265 Q 481.588 286.859 479.611 285.57 Q 477.635 284.28 474.713 284.28 Q 471.791 284.28 469.772 285.591 Q 467.752 286.902 466.699 289.243 Q 465.647 291.585 465.647 294.722 L 465.647 300.995 Q 465.647 304.691 466.871 307.161 Q 468.096 309.632 470.287 310.857 Q 472.479 312.081 475.401 312.081 Q 477.42 312.081 479.074 311.523 Q 480.729 310.964 481.91 309.847 Q 483.092 308.73 483.694 307.14 L 497.057 309.331 Q 495.854 313.456 492.91 316.529 Q 489.967 319.601 485.477 321.277 Q 480.986 322.952 475.143 322.952 Z M 519.937 322.909 Q 515.339 322.909 511.751 321.341 Q 508.163 319.773 506.144 316.614 Q 504.124 313.456 504.124 308.73 Q 504.124 304.734 505.521 301.984 Q 506.917 299.234 509.41 297.515 Q 511.902 295.796 515.124 294.894 Q 518.347 293.991 521.999 293.691 Q 526.081 293.347 528.574 292.939 Q 531.066 292.53 532.226 291.714 Q 533.386 290.898 533.386 289.437 L 533.386 289.265 Q 533.386 287.589 532.613 286.429 Q 531.839 285.269 530.378 284.667 Q 528.917 284.066 526.855 284.066 Q 524.792 284.066 523.181 284.667 Q 521.57 285.269 520.538 286.386 Q 519.507 287.503 519.077 289.007 L 505.499 287.245 Q 506.445 283.12 509.216 280.005 Q 511.988 276.89 516.478 275.15 Q 520.968 273.409 526.984 273.409 Q 531.452 273.409 535.341 274.462 Q 539.23 275.515 542.152 277.556 Q 545.074 279.597 546.706 282.583 Q 548.339 285.57 548.339 289.437 L 548.339 322.05 L 534.245 322.05 L 534.245 315.304 L 533.859 315.304 Q 532.57 317.796 530.572 319.472 Q 528.574 321.148 525.931 322.029 Q 523.288 322.909 519.937 322.909 Z M 524.492 312.984 Q 527.027 312.984 529.068 311.952 Q 531.109 310.921 532.312 309.116 Q 533.515 307.312 533.515 304.948 L 533.515 300.351 Q 532.87 300.695 531.904 300.995 Q 530.937 301.296 529.777 301.532 Q 528.617 301.769 527.456 301.962 Q 526.296 302.155 525.222 302.327 Q 523.031 302.628 521.484 303.359 Q 519.937 304.089 519.12 305.249 Q 518.304 306.409 518.304 308.042 Q 518.304 309.632 519.12 310.728 Q 519.937 311.823 521.312 312.404 Q 522.687 312.984 524.492 312.984 Z M 584.163 274.011 L 584.163 285.14 L 554.171 285.14 L 554.171 274.011 Z M 560.53 262.581 L 575.526 262.581 L 575.526 307.355 Q 575.526 309.245 576.429 310.169 Q 577.331 311.093 579.351 311.093 Q 580.124 311.093 581.521 310.921 Q 582.917 310.749 583.519 310.577 L 585.452 321.491 Q 582.917 322.222 580.554 322.48 Q 578.191 322.738 576.085 322.738 Q 568.437 322.738 564.483 319.15 Q 560.53 315.562 560.53 308.687 Z M 611.548 322.952 Q 605.404 322.952 600.677 321.212 Q 595.951 319.472 592.986 316.185 Q 590.021 312.898 589.161 308.3 L 603.083 306.109 Q 603.986 309.245 606.134 310.835 Q 608.283 312.425 612.107 312.425 Q 615.244 312.425 617.048 311.329 Q 618.853 310.234 618.853 308.429 Q 618.853 306.753 617.413 305.743 Q 615.974 304.734 612.966 304.132 L 604.587 302.499 Q 597.454 301.124 593.91 297.665 Q 590.365 294.206 590.365 288.663 Q 590.365 283.851 592.964 280.456 Q 595.564 277.062 600.312 275.236 Q 605.06 273.409 611.505 273.409 Q 617.521 273.409 621.968 275.021 Q 626.415 276.632 629.144 279.618 Q 631.872 282.605 632.689 286.73 L 619.454 288.835 Q 618.81 286.429 616.812 285.075 Q 614.814 283.722 611.763 283.722 Q 609.056 283.722 607.187 284.818 Q 605.318 285.913 605.318 287.761 Q 605.318 289.222 606.478 290.318 Q 607.638 291.413 610.732 292.015 L 619.927 293.734 Q 627.06 295.109 630.562 298.288 Q 634.064 301.468 634.064 306.71 Q 634.064 311.652 631.163 315.304 Q 628.263 318.956 623.193 320.954 Q 618.122 322.952 611.548 322.952 Z" fill="#F7F8FC"/><path id="headline-line-1" d="M 140.541 435.051 L 140.541 369.051 L 155.366 369.051 L 155.366 377.301 L 155.881 377.301 Q 156.784 375.11 158.524 373.09 Q 160.264 371.07 162.95 369.76 Q 165.635 368.449 169.459 368.449 Q 174.53 368.449 178.891 371.092 Q 183.252 373.735 185.938 379.213 Q 188.623 384.692 188.623 393.113 Q 188.623 401.278 186.045 406.756 Q 183.467 412.235 179.084 415.006 Q 174.702 417.778 169.373 417.778 Q 165.721 417.778 163.036 416.553 Q 160.35 415.328 158.588 413.395 Q 156.827 411.461 155.881 409.313 L 155.538 409.313 L 155.538 435.051 Z M 164.26 406.09 Q 167.139 406.09 169.137 404.479 Q 171.135 402.867 172.166 399.924 Q 173.198 396.981 173.198 393.113 Q 173.198 389.203 172.166 386.303 Q 171.135 383.403 169.159 381.791 Q 167.182 380.18 164.26 380.18 Q 161.381 380.18 159.362 381.748 Q 157.342 383.317 156.268 386.217 Q 155.194 389.117 155.194 393.113 Q 155.194 397.024 156.268 399.945 Q 157.342 402.867 159.383 404.479 Q 161.424 406.09 164.26 406.09 Z M 196.645 417.09 L 196.645 369.051 L 211.211 369.051 L 211.211 377.817 L 211.727 377.817 Q 213.016 373.047 216.002 370.748 Q 218.989 368.449 222.942 368.449 Q 223.973 368.449 225.112 368.578 Q 226.25 368.707 227.196 368.965 L 227.196 382.028 Q 226.121 381.641 224.381 381.447 Q 222.641 381.254 221.266 381.254 Q 218.516 381.254 216.325 382.479 Q 214.133 383.703 212.887 385.852 Q 211.641 388 211.641 390.879 L 211.641 417.09 Z M 253.455 417.992 Q 245.935 417.992 240.521 414.877 Q 235.107 411.762 232.207 406.197 Q 229.306 400.633 229.306 393.242 Q 229.306 385.809 232.207 380.244 Q 235.107 374.68 240.521 371.565 Q 245.935 368.449 253.455 368.449 Q 260.974 368.449 266.388 371.565 Q 271.803 374.68 274.681 380.244 Q 277.56 385.809 277.56 393.242 Q 277.56 400.633 274.681 406.197 Q 271.803 411.762 266.388 414.877 Q 260.974 417.992 253.455 417.992 Z M 253.455 406.52 Q 256.334 406.52 258.31 404.844 Q 260.287 403.168 261.297 400.16 Q 262.306 397.153 262.306 393.156 Q 262.306 389.16 261.297 386.174 Q 260.287 383.188 258.31 381.555 Q 256.334 379.922 253.455 379.922 Q 250.576 379.922 248.599 381.555 Q 246.623 383.188 245.613 386.174 Q 244.603 389.16 244.603 393.156 Q 244.603 397.153 245.613 400.16 Q 246.623 403.168 248.599 404.844 Q 250.576 406.52 253.455 406.52 Z M 285.618 417.09 L 285.618 369.051 L 299.411 369.051 L 300.27 381.512 L 299.239 381.512 Q 300.356 376.828 302.569 373.949 Q 304.782 371.07 307.725 369.738 Q 310.669 368.406 313.934 368.406 Q 319.091 368.406 322.249 371.715 Q 325.407 375.024 327.126 382.543 L 325.45 382.543 Q 326.61 377.516 329.102 374.379 Q 331.594 371.242 334.946 369.824 Q 338.298 368.406 341.907 368.406 Q 346.419 368.406 349.878 370.361 Q 353.337 372.317 355.313 375.947 Q 357.29 379.578 357.29 384.692 L 357.29 417.09 L 342.337 417.09 L 342.337 388.086 Q 342.337 384.434 340.425 382.543 Q 338.512 380.653 335.548 380.653 Q 333.442 380.653 331.874 381.598 Q 330.305 382.543 329.489 384.24 Q 328.673 385.938 328.673 388.258 L 328.673 417.09 L 314.278 417.09 L 314.278 387.871 Q 314.278 384.563 312.43 382.608 Q 310.583 380.653 307.575 380.653 Q 305.512 380.653 303.944 381.598 Q 302.376 382.543 301.495 384.283 Q 300.614 386.024 300.614 388.559 L 300.614 417.09 Z M 367.211 417.09 L 367.211 369.051 L 382.207 369.051 L 382.207 417.09 Z M 374.687 363.422 Q 371.507 363.422 369.23 361.295 Q 366.953 359.168 366.953 356.203 Q 366.953 353.195 369.23 351.09 Q 371.507 348.985 374.687 348.985 Q 377.91 348.985 380.187 351.069 Q 382.464 353.153 382.464 356.203 Q 382.464 359.211 380.187 361.317 Q 377.91 363.422 374.687 363.422 Z M 412.354 417.992 Q 406.209 417.992 401.483 416.252 Q 396.756 414.512 393.791 411.225 Q 390.826 407.938 389.967 403.34 L 403.889 401.149 Q 404.791 404.285 406.94 405.875 Q 409.088 407.465 412.912 407.465 Q 416.049 407.465 417.854 406.369 Q 419.658 405.274 419.658 403.469 Q 419.658 401.793 418.219 400.783 Q 416.779 399.774 413.772 399.172 L 405.393 397.539 Q 398.26 396.164 394.715 392.705 Q 391.17 389.246 391.17 383.703 Q 391.17 378.891 393.77 375.496 Q 396.369 372.102 401.117 370.276 Q 405.865 368.449 412.311 368.449 Q 418.326 368.449 422.774 370.061 Q 427.221 371.672 429.949 374.658 Q 432.678 377.645 433.494 381.77 L 420.26 383.875 Q 419.615 381.469 417.617 380.115 Q 415.619 378.762 412.568 378.762 Q 409.861 378.762 407.992 379.858 Q 406.123 380.953 406.123 382.801 Q 406.123 384.262 407.283 385.358 Q 408.443 386.453 411.537 387.055 L 420.733 388.774 Q 427.865 390.149 431.367 393.328 Q 434.869 396.508 434.869 401.75 Q 434.869 406.692 431.969 410.344 Q 429.068 413.996 423.998 415.994 Q 418.928 417.992 412.354 417.992 Z M 464.968 417.992 Q 457.449 417.992 451.992 415.006 Q 446.535 412.02 443.634 406.477 Q 440.734 400.934 440.734 393.242 Q 440.734 385.852 443.634 380.266 Q 446.535 374.68 451.863 371.565 Q 457.191 368.449 464.41 368.449 Q 469.48 368.449 473.712 370.039 Q 477.945 371.629 481.06 374.744 Q 484.175 377.86 485.872 382.414 Q 487.57 386.969 487.57 392.942 L 487.57 396.723 L 446.062 396.723 L 446.062 388 L 480.437 388 L 473.433 390.063 Q 473.433 386.711 472.423 384.305 Q 471.413 381.899 469.437 380.61 Q 467.46 379.32 464.538 379.32 Q 461.617 379.32 459.597 380.631 Q 457.577 381.942 456.525 384.283 Q 455.472 386.625 455.472 389.762 L 455.472 396.035 Q 455.472 399.731 456.697 402.201 Q 457.921 404.672 460.113 405.897 Q 462.304 407.121 465.226 407.121 Q 467.245 407.121 468.9 406.563 Q 470.554 406.004 471.736 404.887 Q 472.917 403.77 473.519 402.18 L 486.882 404.371 Q 485.679 408.496 482.736 411.569 Q 479.792 414.641 475.302 416.317 Q 470.812 417.992 464.968 417.992 Z M 515.692 417.992 Q 509.547 417.992 504.821 416.252 Q 500.094 414.512 497.129 411.225 Q 494.165 407.938 493.305 403.34 L 507.227 401.149 Q 508.129 404.285 510.278 405.875 Q 512.426 407.465 516.251 407.465 Q 519.387 407.465 521.192 406.369 Q 522.997 405.274 522.997 403.469 Q 522.997 401.793 521.557 400.783 Q 520.118 399.774 517.11 399.172 L 508.731 397.539 Q 501.598 396.164 498.053 392.705 Q 494.508 389.246 494.508 383.703 Q 494.508 378.891 497.108 375.496 Q 499.708 372.102 504.456 370.276 Q 509.204 368.449 515.649 368.449 Q 521.665 368.449 526.112 370.061 Q 530.559 371.672 533.288 374.658 Q 536.016 377.645 536.833 381.77 L 523.598 383.875 Q 522.954 381.469 520.956 380.115 Q 518.958 378.762 515.907 378.762 Q 513.2 378.762 511.331 379.858 Q 509.461 380.953 509.461 382.801 Q 509.461 384.262 510.622 385.358 Q 511.782 386.453 514.876 387.055 L 524.071 388.774 Q 531.204 390.149 534.706 393.328 Q 538.208 396.508 538.208 401.75 Q 538.208 406.692 535.307 410.344 Q 532.407 413.996 527.336 415.994 Q 522.266 417.992 515.692 417.992 Z M 556.49 417.992 Q 553.053 417.992 550.711 415.694 Q 548.369 413.395 548.369 410 Q 548.369 406.563 550.711 404.264 Q 553.053 401.965 556.49 401.965 Q 559.928 401.965 562.269 404.264 Q 564.611 406.563 564.611 410 Q 564.611 413.395 562.269 415.694 Q 559.928 417.992 556.49 417.992 Z" fill="#F7F8FC"/></g><g id="subtitle" role="group" aria-label="Reproduce the final canvas locally before it reaches a feed—or a handoff."><path id="subtitle-line-0" d="M 138.339 487.818 L 138.339 463.081 L 147.204 463.081 Q 150.06 463.081 151.969 464.069 Q 153.878 465.057 154.825 466.817 Q 155.771 468.576 155.771 470.851 Q 155.771 473.142 154.816 474.86 Q 153.862 476.578 151.953 477.525 Q 150.043 478.471 147.171 478.471 L 140.514 478.471 L 140.514 475.234 L 146.806 475.234 Q 148.632 475.234 149.753 474.711 Q 150.873 474.188 151.405 473.208 Q 151.936 472.229 151.936 470.851 Q 151.936 469.456 151.405 468.443 Q 150.873 467.431 149.745 466.875 Q 148.616 466.318 146.773 466.318 L 142.124 466.318 L 142.124 487.818 Z M 152.401 487.818 L 146.408 476.645 L 150.608 476.645 L 156.701 487.818 Z M 167.621 488.199 Q 164.882 488.199 162.89 487.021 Q 160.897 485.842 159.827 483.7 Q 158.756 481.559 158.756 478.67 Q 158.756 475.815 159.81 473.64 Q 160.864 471.465 162.79 470.245 Q 164.716 469.025 167.306 469.025 Q 168.899 469.025 170.377 469.547 Q 171.854 470.07 173.033 471.183 Q 174.212 472.295 174.901 474.063 Q 175.59 475.831 175.59 478.355 L 175.59 479.65 L 160.798 479.65 L 160.798 476.927 L 173.714 476.927 L 172.004 477.823 Q 172.004 476.113 171.473 474.81 Q 170.941 473.507 169.904 472.776 Q 168.866 472.046 167.306 472.046 Q 165.762 472.046 164.666 472.793 Q 163.57 473.54 162.998 474.76 Q 162.425 475.981 162.425 477.425 L 162.425 479.284 Q 162.425 481.193 163.081 482.513 Q 163.736 483.833 164.915 484.505 Q 166.094 485.178 167.654 485.178 Q 168.684 485.178 169.514 484.887 Q 170.344 484.597 170.95 484.007 Q 171.556 483.418 171.871 482.555 L 175.308 483.368 Q 174.859 484.796 173.805 485.892 Q 172.751 486.987 171.182 487.593 Q 169.613 488.199 167.621 488.199 Z M 179.585 494.757 L 179.585 469.257 L 183.138 469.257 L 183.138 472.278 L 183.436 472.278 Q 183.768 471.697 184.358 470.934 Q 184.947 470.17 186.001 469.597 Q 187.056 469.025 188.799 469.025 Q 191.023 469.025 192.775 470.153 Q 194.526 471.282 195.539 473.424 Q 196.552 475.566 196.552 478.587 Q 196.552 481.575 195.556 483.725 Q 194.559 485.875 192.808 487.029 Q 191.056 488.183 188.799 488.183 Q 187.122 488.183 186.051 487.61 Q 184.98 487.037 184.374 486.274 Q 183.768 485.51 183.436 484.912 L 183.237 484.912 L 183.237 494.757 Z M 187.985 485.078 Q 189.579 485.078 190.658 484.215 Q 191.737 483.352 192.277 481.874 Q 192.816 480.397 192.816 478.554 Q 192.816 476.728 192.277 475.275 Q 191.737 473.822 190.666 472.976 Q 189.596 472.129 187.985 472.129 Q 186.425 472.129 185.346 472.934 Q 184.266 473.739 183.719 475.175 Q 183.171 476.611 183.171 478.554 Q 183.171 480.48 183.727 481.949 Q 184.283 483.418 185.362 484.248 Q 186.441 485.078 187.985 485.078 Z M 200.606 487.818 L 200.606 469.257 L 204.142 469.257 L 204.142 472.245 L 204.342 472.245 Q 204.856 470.718 206.135 469.855 Q 207.413 468.991 209.04 468.991 Q 209.389 468.991 209.837 469.016 Q 210.285 469.041 210.584 469.091 L 210.584 472.577 Q 210.385 472.511 209.82 472.444 Q 209.256 472.378 208.675 472.378 Q 207.413 472.378 206.4 472.909 Q 205.388 473.441 204.823 474.379 Q 204.259 475.317 204.259 476.545 L 204.259 487.818 Z M 220.904 488.199 Q 218.298 488.199 216.347 487.004 Q 214.397 485.809 213.317 483.651 Q 212.238 481.492 212.238 478.637 Q 212.238 475.748 213.317 473.582 Q 214.397 471.415 216.347 470.22 Q 218.298 469.025 220.904 469.025 Q 223.527 469.025 225.478 470.22 Q 227.429 471.415 228.508 473.582 Q 229.587 475.748 229.587 478.637 Q 229.587 481.492 228.508 483.651 Q 227.429 485.809 225.478 487.004 Q 223.527 488.199 220.904 488.199 Z M 220.904 485.111 Q 222.598 485.111 223.702 484.223 Q 224.806 483.335 225.345 481.866 Q 225.885 480.397 225.885 478.637 Q 225.885 476.86 225.345 475.375 Q 224.806 473.889 223.702 473.001 Q 222.598 472.112 220.904 472.112 Q 219.228 472.112 218.132 473.001 Q 217.036 473.889 216.497 475.366 Q 215.957 476.844 215.957 478.637 Q 215.957 480.397 216.497 481.866 Q 217.036 483.335 218.132 484.223 Q 219.228 485.111 220.904 485.111 Z M 240.55 488.183 Q 238.292 488.183 236.532 487.029 Q 234.773 485.875 233.777 483.725 Q 232.78 481.575 232.78 478.587 Q 232.78 475.566 233.793 473.424 Q 234.806 471.282 236.566 470.153 Q 238.325 469.025 240.55 469.025 Q 242.277 469.025 243.331 469.597 Q 244.385 470.17 244.983 470.934 Q 245.58 471.697 245.896 472.278 L 246.095 472.278 L 246.095 463.081 L 249.747 463.081 L 249.747 487.818 L 246.195 487.818 L 246.195 484.912 L 245.896 484.912 Q 245.58 485.51 244.966 486.274 Q 244.352 487.037 243.289 487.61 Q 242.227 488.183 240.55 488.183 Z M 241.347 485.078 Q 242.907 485.078 243.978 484.248 Q 245.049 483.418 245.605 481.949 Q 246.161 480.48 246.161 478.554 Q 246.161 476.611 245.613 475.175 Q 245.066 473.739 243.995 472.934 Q 242.924 472.129 241.347 472.129 Q 239.737 472.129 238.666 472.976 Q 237.595 473.822 237.055 475.275 Q 236.516 476.728 236.516 478.554 Q 236.516 480.397 237.064 481.874 Q 237.612 483.352 238.691 484.215 Q 239.77 485.078 241.347 485.078 Z M 260.99 488.05 Q 259.098 488.05 257.67 487.253 Q 256.242 486.456 255.454 484.896 Q 254.665 483.335 254.665 481.044 L 254.665 469.257 L 258.318 469.257 L 258.318 480.596 Q 258.318 482.605 259.372 483.734 Q 260.426 484.862 262.236 484.862 Q 263.481 484.862 264.452 484.323 Q 265.423 483.783 265.988 482.746 Q 266.552 481.708 266.552 480.247 L 266.552 469.257 L 270.204 469.257 L 270.204 487.818 L 266.718 487.818 L 266.701 483.269 L 267.05 483.269 Q 266.237 485.792 264.676 486.921 Q 263.115 488.05 260.99 488.05 Z M 282.928 488.199 Q 280.305 488.199 278.363 487.004 Q 276.42 485.809 275.341 483.651 Q 274.262 481.492 274.262 478.637 Q 274.262 475.748 275.341 473.582 Q 276.42 471.415 278.363 470.22 Q 280.305 469.025 282.928 469.025 Q 284.372 469.025 285.634 469.398 Q 286.896 469.772 287.917 470.477 Q 288.938 471.183 289.643 472.204 Q 290.349 473.225 290.698 474.503 L 287.228 475.333 Q 287.045 474.619 286.663 474.03 Q 286.282 473.441 285.742 473.009 Q 285.203 472.577 284.497 472.345 Q 283.791 472.112 282.945 472.112 Q 281.268 472.112 280.164 473.001 Q 279.06 473.889 278.52 475.366 Q 277.981 476.844 277.981 478.637 Q 277.981 480.413 278.52 481.882 Q 279.06 483.352 280.164 484.232 Q 281.268 485.111 282.945 485.111 Q 283.808 485.111 284.522 484.871 Q 285.236 484.63 285.8 484.19 Q 286.365 483.75 286.746 483.128 Q 287.128 482.505 287.294 481.758 L 290.747 482.588 Q 290.415 483.9 289.702 484.937 Q 288.988 485.975 287.967 486.705 Q 286.946 487.436 285.667 487.818 Q 284.389 488.199 282.928 488.199 Z M 302.745 488.199 Q 300.006 488.199 298.014 487.021 Q 296.022 485.842 294.951 483.7 Q 293.88 481.559 293.88 478.67 Q 293.88 475.815 294.934 473.64 Q 295.989 471.465 297.914 470.245 Q 299.84 469.025 302.43 469.025 Q 304.024 469.025 305.501 469.547 Q 306.979 470.07 308.157 471.183 Q 309.336 472.295 310.025 474.063 Q 310.714 475.831 310.714 478.355 L 310.714 479.65 L 295.922 479.65 L 295.922 476.927 L 308.838 476.927 L 307.128 477.823 Q 307.128 476.113 306.597 474.81 Q 306.066 473.507 305.028 472.776 Q 303.99 472.046 302.43 472.046 Q 300.886 472.046 299.79 472.793 Q 298.695 473.54 298.122 474.76 Q 297.549 475.981 297.549 477.425 L 297.549 479.284 Q 297.549 481.193 298.205 482.513 Q 298.861 483.833 300.039 484.505 Q 301.218 485.178 302.779 485.178 Q 303.808 485.178 304.638 484.887 Q 305.468 484.597 306.074 484.007 Q 306.68 483.418 306.995 482.555 L 310.432 483.368 Q 309.984 484.796 308.929 485.892 Q 307.875 486.987 306.306 487.593 Q 304.738 488.199 302.745 488.199 Z  M 331.705 469.257 L 331.705 472.229 L 321.645 472.229 L 321.645 469.257 Z M 324.351 464.841 L 328.003 464.841 L 328.003 482.804 Q 328.003 483.916 328.476 484.439 Q 328.949 484.962 330.028 484.962 Q 330.311 484.962 330.775 484.896 Q 331.24 484.829 331.572 484.763 L 332.22 487.685 Q 331.639 487.884 330.975 487.975 Q 330.311 488.067 329.663 488.067 Q 327.14 488.067 325.745 486.763 Q 324.351 485.46 324.351 483.103 Z M 339.017 476.827 L 339.017 487.818 L 335.365 487.818 L 335.365 463.081 L 338.984 463.081 L 338.984 473.806 L 338.502 473.806 Q 339.316 471.316 340.86 470.17 Q 342.404 469.025 344.595 469.025 Q 346.488 469.025 347.907 469.821 Q 349.327 470.618 350.115 472.171 Q 350.904 473.723 350.904 476.03 L 350.904 487.818 L 347.251 487.818 L 347.251 476.479 Q 347.251 474.47 346.206 473.341 Q 345.16 472.212 343.334 472.212 Q 342.105 472.212 341.125 472.752 Q 340.146 473.291 339.582 474.32 Q 339.017 475.35 339.017 476.827 Z M 363.827 488.199 Q 361.088 488.199 359.095 487.021 Q 357.103 485.842 356.032 483.7 Q 354.962 481.559 354.962 478.67 Q 354.962 475.815 356.016 473.64 Q 357.07 471.465 358.996 470.245 Q 360.921 469.025 363.511 469.025 Q 365.105 469.025 366.583 469.547 Q 368.06 470.07 369.239 471.183 Q 370.418 472.295 371.107 474.063 Q 371.796 475.831 371.796 478.355 L 371.796 479.65 L 357.004 479.65 L 357.004 476.927 L 369.92 476.927 L 368.21 477.823 Q 368.21 476.113 367.678 474.81 Q 367.147 473.507 366.109 472.776 Q 365.072 472.046 363.511 472.046 Q 361.967 472.046 360.872 472.793 Q 359.776 473.54 359.203 474.76 Q 358.63 475.981 358.63 477.425 L 358.63 479.284 Q 358.63 481.193 359.286 482.513 Q 359.942 483.833 361.121 484.505 Q 362.299 485.178 363.86 485.178 Q 364.889 485.178 365.719 484.887 Q 366.549 484.597 367.155 484.007 Q 367.761 483.418 368.077 482.555 L 371.513 483.368 Q 371.065 484.796 370.011 485.892 Q 368.957 486.987 367.388 487.593 Q 365.819 488.199 363.827 488.199 Z  M 394.048 469.257 L 394.048 472.229 L 382.726 472.229 L 382.726 469.257 Z M 386.246 487.818 L 386.246 467.132 Q 386.246 465.405 387.018 464.243 Q 387.79 463.081 389.051 462.5 Q 390.313 461.919 391.774 461.919 Q 392.886 461.919 393.675 462.102 Q 394.463 462.284 394.829 462.417 L 393.982 465.372 Q 393.716 465.289 393.326 465.198 Q 392.936 465.107 392.355 465.107 Q 391.06 465.107 390.479 465.754 Q 389.898 466.401 389.898 467.63 L 389.898 487.818 Z M 397.847 487.818 L 397.847 469.257 L 401.5 469.257 L 401.5 487.818 Z M 399.69 466.418 Q 398.744 466.418 398.071 465.787 Q 397.399 465.156 397.399 464.26 Q 397.399 463.347 398.071 462.716 Q 398.744 462.085 399.69 462.085 Q 400.636 462.085 401.317 462.716 Q 401.998 463.347 401.998 464.26 Q 401.998 465.156 401.317 465.787 Q 400.636 466.418 399.69 466.418 Z M 410.063 476.827 L 410.063 487.818 L 406.41 487.818 L 406.41 469.257 L 409.897 469.257 L 409.93 473.806 L 409.548 473.806 Q 410.362 471.316 411.906 470.17 Q 413.449 469.025 415.641 469.025 Q 417.533 469.025 418.945 469.821 Q 420.356 470.618 421.153 472.171 Q 421.949 473.723 421.949 476.03 L 421.949 487.818 L 418.297 487.818 L 418.297 476.479 Q 418.297 474.47 417.251 473.341 Q 416.205 472.212 414.379 472.212 Q 413.151 472.212 412.171 472.752 Q 411.192 473.291 410.627 474.32 Q 410.063 475.35 410.063 476.827 Z M 432.053 488.233 Q 430.293 488.233 428.866 487.577 Q 427.438 486.921 426.608 485.659 Q 425.778 484.398 425.778 482.571 Q 425.778 480.994 426.384 479.982 Q 426.99 478.969 428.027 478.371 Q 429.065 477.774 430.335 477.475 Q 431.605 477.176 432.916 477.026 Q 434.56 476.827 435.589 476.703 Q 436.619 476.578 437.108 476.288 Q 437.598 475.997 437.598 475.35 L 437.598 475.25 Q 437.598 474.204 437.2 473.49 Q 436.801 472.776 436.013 472.386 Q 435.224 471.996 434.045 471.996 Q 432.833 471.996 431.962 472.37 Q 431.09 472.743 430.551 473.324 Q 430.011 473.905 429.746 474.536 L 426.309 473.64 Q 426.94 471.98 428.119 470.967 Q 429.297 469.954 430.825 469.489 Q 432.352 469.025 433.979 469.025 Q 435.108 469.025 436.37 469.29 Q 437.631 469.556 438.744 470.253 Q 439.856 470.95 440.553 472.212 Q 441.25 473.474 441.25 475.499 L 441.25 487.818 L 437.714 487.818 L 437.714 485.277 L 437.532 485.277 Q 437.166 485.991 436.453 486.672 Q 435.739 487.353 434.651 487.793 Q 433.564 488.233 432.053 488.233 Z M 432.867 485.294 Q 434.361 485.294 435.423 484.713 Q 436.486 484.132 437.05 483.169 Q 437.615 482.206 437.615 481.127 L 437.615 478.753 Q 437.415 478.952 436.859 479.11 Q 436.303 479.268 435.589 479.392 Q 434.875 479.517 434.211 479.6 Q 433.547 479.683 433.116 479.733 Q 432.086 479.865 431.231 480.181 Q 430.376 480.496 429.87 481.077 Q 429.364 481.658 429.364 482.621 Q 429.364 483.501 429.82 484.099 Q 430.277 484.696 431.057 484.995 Q 431.837 485.294 432.867 485.294 Z M 449.816 463.081 L 449.816 487.818 L 446.164 487.818 L 446.164 463.081 Z  M 471.59 488.199 Q 468.967 488.199 467.025 487.004 Q 465.082 485.809 464.003 483.651 Q 462.924 481.492 462.924 478.637 Q 462.924 475.748 464.003 473.582 Q 465.082 471.415 467.025 470.22 Q 468.967 469.025 471.59 469.025 Q 473.034 469.025 474.296 469.398 Q 475.558 469.772 476.579 470.477 Q 477.6 471.183 478.305 472.204 Q 479.011 473.225 479.36 474.503 L 475.89 475.333 Q 475.707 474.619 475.325 474.03 Q 474.944 473.441 474.404 473.009 Q 473.865 472.577 473.159 472.345 Q 472.453 472.112 471.607 472.112 Q 469.93 472.112 468.826 473.001 Q 467.722 473.889 467.182 475.366 Q 466.643 476.844 466.643 478.637 Q 466.643 480.413 467.182 481.882 Q 467.722 483.352 468.826 484.232 Q 469.93 485.111 471.607 485.111 Q 472.47 485.111 473.184 484.871 Q 473.898 484.63 474.462 484.19 Q 475.027 483.75 475.408 483.128 Q 475.79 482.505 475.956 481.758 L 479.409 482.588 Q 479.077 483.9 478.364 484.937 Q 477.65 485.975 476.629 486.705 Q 475.608 487.436 474.329 487.818 Q 473.051 488.199 471.59 488.199 Z M 488.934 488.233 Q 487.174 488.233 485.746 487.577 Q 484.318 486.921 483.488 485.659 Q 482.658 484.398 482.658 482.571 Q 482.658 480.994 483.264 479.982 Q 483.87 478.969 484.908 478.371 Q 485.945 477.774 487.215 477.475 Q 488.485 477.176 489.797 477.026 Q 491.441 476.827 492.47 476.703 Q 493.499 476.578 493.989 476.288 Q 494.479 475.997 494.479 475.35 L 494.479 475.25 Q 494.479 474.204 494.08 473.49 Q 493.682 472.776 492.893 472.386 Q 492.105 471.996 490.926 471.996 Q 489.714 471.996 488.842 472.37 Q 487.971 472.743 487.431 473.324 Q 486.892 473.905 486.626 474.536 L 483.19 473.64 Q 483.82 471.98 484.999 470.967 Q 486.178 469.954 487.705 469.489 Q 489.233 469.025 490.86 469.025 Q 491.988 469.025 493.25 469.29 Q 494.512 469.556 495.624 470.253 Q 496.736 470.95 497.434 472.212 Q 498.131 473.474 498.131 475.499 L 498.131 487.818 L 494.595 487.818 L 494.595 485.277 L 494.412 485.277 Q 494.047 485.991 493.333 486.672 Q 492.619 487.353 491.532 487.793 Q 490.444 488.233 488.934 488.233 Z M 489.747 485.294 Q 491.241 485.294 492.304 484.713 Q 493.366 484.132 493.931 483.169 Q 494.495 482.206 494.495 481.127 L 494.495 478.753 Q 494.296 478.952 493.74 479.11 Q 493.184 479.268 492.47 479.392 Q 491.756 479.517 491.092 479.6 Q 490.428 479.683 489.996 479.733 Q 488.967 479.865 488.112 480.181 Q 487.257 480.496 486.751 481.077 Q 486.244 481.658 486.244 482.621 Q 486.244 483.501 486.701 484.099 Q 487.157 484.696 487.938 484.995 Q 488.718 485.294 489.747 485.294 Z M 506.697 476.827 L 506.697 487.818 L 503.044 487.818 L 503.044 469.257 L 506.531 469.257 L 506.564 473.806 L 506.182 473.806 Q 506.996 471.316 508.539 470.17 Q 510.083 469.025 512.275 469.025 Q 514.167 469.025 515.579 469.821 Q 516.99 470.618 517.787 472.171 Q 518.583 473.723 518.583 476.03 L 518.583 487.818 L 514.931 487.818 L 514.931 476.479 Q 514.931 474.47 513.885 473.341 Q 512.839 472.212 511.013 472.212 Q 509.785 472.212 508.805 472.752 Q 507.826 473.291 507.261 474.32 Q 506.697 475.35 506.697 476.827 Z M 528.275 487.818 L 521.27 469.257 L 525.221 469.257 L 528.89 479.799 Q 529.504 481.542 529.936 483.294 Q 530.367 485.045 530.849 486.772 L 529.753 486.772 Q 530.218 485.045 530.649 483.294 Q 531.081 481.542 531.679 479.799 L 535.348 469.257 L 539.266 469.257 L 532.26 487.818 Z M 547.472 488.233 Q 545.712 488.233 544.285 487.577 Q 542.857 486.921 542.027 485.659 Q 541.197 484.398 541.197 482.571 Q 541.197 480.994 541.803 479.982 Q 542.409 478.969 543.446 478.371 Q 544.484 477.774 545.754 477.475 Q 547.024 477.176 548.335 477.026 Q 549.979 476.827 551.008 476.703 Q 552.037 476.578 552.527 476.288 Q 553.017 475.997 553.017 475.35 L 553.017 475.25 Q 553.017 474.204 552.619 473.49 Q 552.22 472.776 551.432 472.386 Q 550.643 471.996 549.464 471.996 Q 548.252 471.996 547.381 472.37 Q 546.509 472.743 545.97 473.324 Q 545.43 473.905 545.164 474.536 L 541.728 473.64 Q 542.359 471.98 543.537 470.967 Q 544.716 469.954 546.244 469.489 Q 547.771 469.025 549.398 469.025 Q 550.527 469.025 551.788 469.29 Q 553.05 469.556 554.162 470.253 Q 555.275 470.95 555.972 472.212 Q 556.669 473.474 556.669 475.499 L 556.669 487.818 L 553.133 487.818 L 553.133 485.277 L 552.951 485.277 Q 552.585 485.991 551.871 486.672 Q 551.158 487.353 550.07 487.793 Q 548.983 488.233 547.472 488.233 Z M 548.286 485.294 Q 549.78 485.294 550.842 484.713 Q 551.905 484.132 552.469 483.169 Q 553.034 482.206 553.034 481.127 L 553.034 478.753 Q 552.834 478.952 552.278 479.11 Q 551.722 479.268 551.008 479.392 Q 550.294 479.517 549.63 479.6 Q 548.966 479.683 548.535 479.733 Q 547.505 479.865 546.65 480.181 Q 545.795 480.496 545.289 481.077 Q 544.783 481.658 544.783 482.621 Q 544.783 483.501 545.239 484.099 Q 545.696 484.696 546.476 484.995 Q 547.256 485.294 548.286 485.294 Z M 568.24 488.199 Q 566.231 488.199 564.662 487.618 Q 563.093 487.037 562.089 485.9 Q 561.085 484.763 560.753 483.119 L 564.189 482.405 Q 564.571 483.85 565.617 484.547 Q 566.663 485.244 568.273 485.244 Q 570.033 485.244 571.079 484.505 Q 572.125 483.767 572.125 482.737 Q 572.125 481.841 571.486 481.26 Q 570.846 480.679 569.518 480.397 L 566.397 479.683 Q 563.807 479.102 562.546 477.823 Q 561.284 476.545 561.284 474.553 Q 561.284 472.893 562.214 471.648 Q 563.143 470.402 564.754 469.713 Q 566.364 469.025 568.472 469.025 Q 570.481 469.025 571.909 469.606 Q 573.337 470.187 574.225 471.233 Q 575.113 472.278 575.495 473.656 L 572.224 474.37 Q 571.876 473.391 571.012 472.652 Q 570.149 471.913 568.506 471.913 Q 566.995 471.913 565.982 472.594 Q 564.969 473.275 564.969 474.32 Q 564.969 475.25 565.642 475.823 Q 566.314 476.396 567.841 476.744 L 570.83 477.408 Q 573.403 477.989 574.648 479.234 Q 575.893 480.48 575.893 482.422 Q 575.893 484.115 574.922 485.419 Q 573.951 486.722 572.233 487.461 Q 570.514 488.199 568.24 488.199 Z  M 592.609 463.081 L 592.609 487.818 L 588.957 487.818 L 588.957 463.081 Z M 605.323 488.199 Q 602.716 488.199 600.766 487.004 Q 598.815 485.809 597.736 483.651 Q 596.657 481.492 596.657 478.637 Q 596.657 475.748 597.736 473.582 Q 598.815 471.415 600.766 470.22 Q 602.716 469.025 605.323 469.025 Q 607.946 469.025 609.897 470.22 Q 611.847 471.415 612.926 473.582 Q 614.005 475.748 614.005 478.637 Q 614.005 481.492 612.926 483.651 Q 611.847 485.809 609.897 487.004 Q 607.946 488.199 605.323 488.199 Z M 605.323 485.111 Q 607.016 485.111 608.12 484.223 Q 609.224 483.335 609.764 481.866 Q 610.303 480.397 610.303 478.637 Q 610.303 476.86 609.764 475.375 Q 609.224 473.889 608.12 473.001 Q 607.016 472.112 605.323 472.112 Q 603.646 472.112 602.55 473.001 Q 601.455 473.889 600.915 475.366 Q 600.376 476.844 600.376 478.637 Q 600.376 480.397 600.915 481.866 Q 601.455 483.335 602.55 484.223 Q 603.646 485.111 605.323 485.111 Z M 625.865 488.199 Q 623.242 488.199 621.299 487.004 Q 619.357 485.809 618.278 483.651 Q 617.199 481.492 617.199 478.637 Q 617.199 475.748 618.278 473.582 Q 619.357 471.415 621.299 470.22 Q 623.242 469.025 625.865 469.025 Q 627.309 469.025 628.571 469.398 Q 629.833 469.772 630.854 470.477 Q 631.875 471.183 632.58 472.204 Q 633.286 473.225 633.634 474.503 L 630.165 475.333 Q 629.982 474.619 629.6 474.03 Q 629.218 473.441 628.679 473.009 Q 628.139 472.577 627.434 472.345 Q 626.728 472.112 625.882 472.112 Q 624.205 472.112 623.101 473.001 Q 621.997 473.889 621.457 475.366 Q 620.918 476.844 620.918 478.637 Q 620.918 480.413 621.457 481.882 Q 621.997 483.352 623.101 484.232 Q 624.205 485.111 625.882 485.111 Q 626.745 485.111 627.459 484.871 Q 628.173 484.63 628.737 484.19 Q 629.301 483.75 629.683 483.128 Q 630.065 482.505 630.231 481.758 L 633.684 482.588 Q 633.352 483.9 632.638 484.937 Q 631.924 485.975 630.903 486.705 Q 629.882 487.436 628.604 487.818 Q 627.326 488.199 625.865 488.199 Z M 643.209 488.233 Q 641.449 488.233 640.021 487.577 Q 638.593 486.921 637.763 485.659 Q 636.933 484.398 636.933 482.571 Q 636.933 480.994 637.539 479.982 Q 638.145 478.969 639.183 478.371 Q 640.22 477.774 641.49 477.475 Q 642.76 477.176 644.072 477.026 Q 645.715 476.827 646.745 476.703 Q 647.774 476.578 648.264 476.288 Q 648.753 475.997 648.753 475.35 L 648.753 475.25 Q 648.753 474.204 648.355 473.49 Q 647.957 472.776 647.168 472.386 Q 646.379 471.996 645.201 471.996 Q 643.989 471.996 643.117 472.37 Q 642.246 472.743 641.706 473.324 Q 641.167 473.905 640.901 474.536 L 637.464 473.64 Q 638.095 471.98 639.274 470.967 Q 640.453 469.954 641.98 469.489 Q 643.507 469.025 645.134 469.025 Q 646.263 469.025 647.525 469.29 Q 648.787 469.556 649.899 470.253 Q 651.011 470.95 651.709 472.212 Q 652.406 473.474 652.406 475.499 L 652.406 487.818 L 648.87 487.818 L 648.87 485.277 L 648.687 485.277 Q 648.322 485.991 647.608 486.672 Q 646.894 487.353 645.807 487.793 Q 644.719 488.233 643.209 488.233 Z M 644.022 485.294 Q 645.516 485.294 646.579 484.713 Q 647.641 484.132 648.206 483.169 Q 648.77 482.206 648.77 481.127 L 648.77 478.753 Q 648.571 478.952 648.015 479.11 Q 647.459 479.268 646.745 479.392 Q 646.031 479.517 645.367 479.6 Q 644.703 479.683 644.271 479.733 Q 643.242 479.865 642.387 480.181 Q 641.532 480.496 641.025 481.077 Q 640.519 481.658 640.519 482.621 Q 640.519 483.501 640.976 484.099 Q 641.432 484.696 642.212 484.995 Q 642.993 485.294 644.022 485.294 Z M 660.972 463.081 L 660.972 487.818 L 657.319 487.818 L 657.319 463.081 Z M 669.535 463.081 L 669.535 487.818 L 665.882 487.818 L 665.882 463.081 Z M 674.422 494.491 L 675.319 491.52 L 675.734 491.619 Q 676.68 491.868 677.435 491.752 Q 678.191 491.636 678.747 491.047 Q 679.303 490.457 679.635 489.262 L 680.033 487.901 L 672.978 469.257 L 676.929 469.257 L 680.598 479.799 Q 681.212 481.559 681.619 483.302 Q 682.026 485.045 682.507 486.772 L 681.378 486.772 Q 681.86 485.045 682.299 483.294 Q 682.739 481.542 683.354 479.799 L 687.089 469.257 L 691.007 469.257 L 682.939 490.391 Q 682.374 491.885 681.552 492.881 Q 680.731 493.877 679.602 494.383 Q 678.473 494.89 676.979 494.89 Q 676.115 494.89 675.435 494.765 Q 674.754 494.641 674.422 494.491 Z  M 712.505 488.183 Q 710.828 488.183 709.757 487.61 Q 708.687 487.037 708.081 486.274 Q 707.475 485.51 707.143 484.912 L 706.844 484.912 L 706.844 487.818 L 703.291 487.818 L 703.291 463.081 L 706.944 463.081 L 706.944 472.278 L 707.143 472.278 Q 707.475 471.697 708.064 470.934 Q 708.653 470.17 709.708 469.597 Q 710.762 469.025 712.505 469.025 Q 714.73 469.025 716.481 470.153 Q 718.233 471.282 719.245 473.424 Q 720.258 475.566 720.258 478.587 Q 720.258 481.575 719.262 483.725 Q 718.266 485.875 716.514 487.029 Q 714.763 488.183 712.505 488.183 Z M 711.692 485.078 Q 713.285 485.078 714.364 484.215 Q 715.444 483.352 715.983 481.874 Q 716.523 480.397 716.523 478.554 Q 716.523 476.728 715.983 475.275 Q 715.444 473.822 714.373 472.976 Q 713.302 472.129 711.692 472.129 Q 710.131 472.129 709.052 472.934 Q 707.973 473.739 707.425 475.175 Q 706.877 476.611 706.877 478.554 Q 706.877 480.48 707.433 481.949 Q 707.989 483.418 709.069 484.248 Q 710.148 485.078 711.692 485.078 Z M 732.315 488.199 Q 729.575 488.199 727.583 487.021 Q 725.591 485.842 724.52 483.7 Q 723.449 481.559 723.449 478.67 Q 723.449 475.815 724.504 473.64 Q 725.558 471.465 727.484 470.245 Q 729.409 469.025 731.999 469.025 Q 733.593 469.025 735.071 469.547 Q 736.548 470.07 737.727 471.183 Q 738.905 472.295 739.594 474.063 Q 740.283 475.831 740.283 478.355 L 740.283 479.65 L 725.491 479.65 L 725.491 476.927 L 738.407 476.927 L 736.697 477.823 Q 736.697 476.113 736.166 474.81 Q 735.635 473.507 734.597 472.776 Q 733.56 472.046 731.999 472.046 Q 730.455 472.046 729.36 472.793 Q 728.264 473.54 727.691 474.76 Q 727.118 475.981 727.118 477.425 L 727.118 479.284 Q 727.118 481.193 727.774 482.513 Q 728.43 483.833 729.609 484.505 Q 730.787 485.178 732.348 485.178 Q 733.377 485.178 734.207 484.887 Q 735.037 484.597 735.643 484.007 Q 736.249 483.418 736.565 482.555 L 740.001 483.368 Q 739.553 484.796 738.499 485.892 Q 737.445 486.987 735.876 487.593 Q 734.307 488.199 732.315 488.199 Z M 753.476 469.257 L 753.476 472.229 L 742.153 472.229 L 742.153 469.257 Z M 745.673 487.818 L 745.673 467.132 Q 745.673 465.405 746.445 464.243 Q 747.217 463.081 748.479 462.5 Q 749.74 461.919 751.201 461.919 Q 752.314 461.919 753.102 462.102 Q 753.891 462.284 754.256 462.417 L 753.409 465.372 Q 753.144 465.289 752.754 465.198 Q 752.363 465.107 751.782 465.107 Q 750.487 465.107 749.906 465.754 Q 749.325 466.401 749.325 467.63 L 749.325 487.818 Z M 764.075 488.199 Q 761.469 488.199 759.518 487.004 Q 757.568 485.809 756.488 483.651 Q 755.409 481.492 755.409 478.637 Q 755.409 475.748 756.488 473.582 Q 757.568 471.415 759.518 470.22 Q 761.469 469.025 764.075 469.025 Q 766.698 469.025 768.649 470.22 Q 770.6 471.415 771.679 473.582 Q 772.758 475.748 772.758 478.637 Q 772.758 481.492 771.679 483.651 Q 770.6 485.809 768.649 487.004 Q 766.698 488.199 764.075 488.199 Z M 764.075 485.111 Q 765.769 485.111 766.873 484.223 Q 767.977 483.335 768.516 481.866 Q 769.056 480.397 769.056 478.637 Q 769.056 476.86 768.516 475.375 Q 767.977 473.889 766.873 473.001 Q 765.769 472.112 764.075 472.112 Q 762.399 472.112 761.303 473.001 Q 760.207 473.889 759.668 475.366 Q 759.128 476.844 759.128 478.637 Q 759.128 480.397 759.668 481.866 Q 760.207 483.335 761.303 484.223 Q 762.399 485.111 764.075 485.111 Z M 776.815 487.818 L 776.815 469.257 L 780.351 469.257 L 780.351 472.245 L 780.55 472.245 Q 781.065 470.718 782.343 469.855 Q 783.621 468.991 785.248 468.991 Q 785.597 468.991 786.045 469.016 Q 786.493 469.041 786.792 469.091 L 786.792 472.577 Q 786.593 472.511 786.029 472.444 Q 785.464 472.378 784.883 472.378 Q 783.621 472.378 782.609 472.909 Q 781.596 473.441 781.032 474.379 Q 780.467 475.317 780.467 476.545 L 780.467 487.818 Z M 797.312 488.199 Q 794.573 488.199 792.581 487.021 Q 790.588 485.842 789.518 483.7 Q 788.447 481.559 788.447 478.67 Q 788.447 475.815 789.501 473.64 Q 790.555 471.465 792.481 470.245 Q 794.407 469.025 796.997 469.025 Q 798.59 469.025 800.068 469.547 Q 801.545 470.07 802.724 471.183 Q 803.903 472.295 804.592 474.063 Q 805.281 475.831 805.281 478.355 L 805.281 479.65 L 790.489 479.65 L 790.489 476.927 L 803.405 476.927 L 801.695 477.823 Q 801.695 476.113 801.164 474.81 Q 800.632 473.507 799.595 472.776 Q 798.557 472.046 796.997 472.046 Q 795.453 472.046 794.357 472.793 Q 793.261 473.54 792.688 474.76 Q 792.116 475.981 792.116 477.425 L 792.116 479.284 Q 792.116 481.193 792.771 482.513 Q 793.427 483.833 794.606 484.505 Q 795.785 485.178 797.345 485.178 Q 798.375 485.178 799.205 484.887 Q 800.035 484.597 800.641 484.007 Q 801.247 483.418 801.562 482.555 L 804.999 483.368 Q 804.55 484.796 803.496 485.892 Q 802.442 486.987 800.873 487.593 Q 799.304 488.199 797.312 488.199 Z  M 818.336 487.818 L 818.336 469.257 L 821.989 469.257 L 821.989 487.818 Z M 820.179 466.418 Q 819.233 466.418 818.56 465.787 Q 817.888 465.156 817.888 464.26 Q 817.888 463.347 818.56 462.716 Q 819.233 462.085 820.179 462.085 Q 821.125 462.085 821.806 462.716 Q 822.487 463.347 822.487 464.26 Q 822.487 465.156 821.806 465.787 Q 821.125 466.418 820.179 466.418 Z M 834.835 469.257 L 834.835 472.229 L 824.774 472.229 L 824.774 469.257 Z M 827.48 464.841 L 831.133 464.841 L 831.133 482.804 Q 831.133 483.916 831.606 484.439 Q 832.079 484.962 833.158 484.962 Q 833.44 484.962 833.905 484.896 Q 834.37 484.829 834.702 484.763 L 835.35 487.685 Q 834.768 487.884 834.104 487.975 Q 833.44 488.067 832.793 488.067 Q 830.269 488.067 828.875 486.763 Q 827.48 485.46 827.48 483.103 Z" fill="#B8C0D9"/><path id="subtitle-line-1" d="M 138.057 529.978 L 138.057 511.417 L 141.593 511.417 L 141.593 514.405 L 141.792 514.405 Q 142.307 512.878 143.585 512.015 Q 144.864 511.151 146.491 511.151 Q 146.839 511.151 147.288 511.176 Q 147.736 511.201 148.035 511.251 L 148.035 514.737 Q 147.835 514.671 147.271 514.604 Q 146.706 514.538 146.125 514.538 Q 144.864 514.538 143.851 515.069 Q 142.838 515.601 142.274 516.539 Q 141.709 517.477 141.709 518.705 L 141.709 529.978 Z M 158.554 530.359 Q 155.815 530.359 153.823 529.181 Q 151.831 528.002 150.76 525.86 Q 149.689 523.719 149.689 520.83 Q 149.689 517.975 150.743 515.8 Q 151.797 513.625 153.723 512.405 Q 155.649 511.185 158.239 511.185 Q 159.833 511.185 161.31 511.707 Q 162.788 512.23 163.966 513.343 Q 165.145 514.455 165.834 516.223 Q 166.523 517.991 166.523 520.515 L 166.523 521.81 L 151.731 521.81 L 151.731 519.087 L 164.647 519.087 L 162.937 519.983 Q 162.937 518.273 162.406 516.97 Q 161.875 515.667 160.837 514.936 Q 159.799 514.206 158.239 514.206 Q 156.695 514.206 155.599 514.953 Q 154.504 515.7 153.931 516.92 Q 153.358 518.141 153.358 519.585 L 153.358 521.444 Q 153.358 523.353 154.014 524.673 Q 154.67 525.993 155.848 526.665 Q 157.027 527.338 158.587 527.338 Q 159.617 527.338 160.447 527.047 Q 161.277 526.757 161.883 526.167 Q 162.489 525.578 162.804 524.715 L 166.241 525.528 Q 165.793 526.956 164.738 528.052 Q 163.684 529.147 162.115 529.753 Q 160.546 530.359 158.554 530.359 Z M 176.046 530.393 Q 174.287 530.393 172.859 529.737 Q 171.431 529.081 170.601 527.819 Q 169.771 526.558 169.771 524.731 Q 169.771 523.154 170.377 522.142 Q 170.983 521.129 172.02 520.531 Q 173.058 519.934 174.328 519.635 Q 175.598 519.336 176.91 519.186 Q 178.553 518.987 179.582 518.863 Q 180.612 518.738 181.102 518.448 Q 181.591 518.157 181.591 517.51 L 181.591 517.41 Q 181.591 516.364 181.193 515.65 Q 180.794 514.936 180.006 514.546 Q 179.217 514.156 178.039 514.156 Q 176.827 514.156 175.955 514.53 Q 175.083 514.903 174.544 515.484 Q 174.004 516.065 173.739 516.696 L 170.302 515.8 Q 170.933 514.14 172.112 513.127 Q 173.29 512.114 174.818 511.649 Q 176.345 511.185 177.972 511.185 Q 179.101 511.185 180.363 511.45 Q 181.624 511.716 182.737 512.413 Q 183.849 513.11 184.546 514.372 Q 185.244 515.634 185.244 517.659 L 185.244 529.978 L 181.707 529.978 L 181.707 527.437 L 181.525 527.437 Q 181.16 528.151 180.446 528.832 Q 179.732 529.513 178.644 529.953 Q 177.557 530.393 176.046 530.393 Z M 176.86 527.454 Q 178.354 527.454 179.416 526.873 Q 180.479 526.292 181.043 525.329 Q 181.608 524.366 181.608 523.287 L 181.608 520.913 Q 181.409 521.112 180.852 521.27 Q 180.296 521.428 179.582 521.552 Q 178.869 521.677 178.205 521.76 Q 177.54 521.843 177.109 521.893 Q 176.08 522.025 175.225 522.341 Q 174.37 522.656 173.863 523.237 Q 173.357 523.818 173.357 524.781 Q 173.357 525.661 173.813 526.259 Q 174.27 526.856 175.05 527.155 Q 175.831 527.454 176.86 527.454 Z M 197.96 530.359 Q 195.337 530.359 193.394 529.164 Q 191.452 527.969 190.373 525.811 Q 189.294 523.652 189.294 520.797 Q 189.294 517.908 190.373 515.742 Q 191.452 513.575 193.394 512.38 Q 195.337 511.185 197.96 511.185 Q 199.404 511.185 200.666 511.558 Q 201.927 511.932 202.948 512.637 Q 203.969 513.343 204.675 514.364 Q 205.381 515.385 205.729 516.663 L 202.26 517.493 Q 202.077 516.779 201.695 516.19 Q 201.313 515.601 200.774 515.169 Q 200.234 514.737 199.529 514.505 Q 198.823 514.272 197.976 514.272 Q 196.3 514.272 195.196 515.161 Q 194.092 516.049 193.552 517.526 Q 193.012 519.004 193.012 520.797 Q 193.012 522.573 193.552 524.042 Q 194.092 525.512 195.196 526.392 Q 196.3 527.271 197.976 527.271 Q 198.84 527.271 199.553 527.031 Q 200.267 526.79 200.832 526.35 Q 201.396 525.91 201.778 525.288 Q 202.16 524.665 202.326 523.918 L 205.779 524.748 Q 205.447 526.06 204.733 527.097 Q 204.019 528.135 202.998 528.865 Q 201.977 529.596 200.699 529.978 Q 199.421 530.359 197.96 530.359 Z M 213.427 518.987 L 213.427 529.978 L 209.775 529.978 L 209.775 505.241 L 213.394 505.241 L 213.394 515.966 L 212.913 515.966 Q 213.726 513.476 215.27 512.33 Q 216.814 511.185 219.006 511.185 Q 220.898 511.185 222.318 511.981 Q 223.737 512.778 224.526 514.331 Q 225.314 515.883 225.314 518.19 L 225.314 529.978 L 221.662 529.978 L 221.662 518.639 Q 221.662 516.63 220.616 515.501 Q 219.57 514.372 217.744 514.372 Q 216.515 514.372 215.536 514.912 Q 214.556 515.451 213.992 516.48 Q 213.427 517.51 213.427 518.987 Z M 238.237 530.359 Q 235.498 530.359 233.506 529.181 Q 231.513 528.002 230.443 525.86 Q 229.372 523.719 229.372 520.83 Q 229.372 517.975 230.426 515.8 Q 231.48 513.625 233.406 512.405 Q 235.332 511.185 237.922 511.185 Q 239.515 511.185 240.993 511.707 Q 242.47 512.23 243.649 513.343 Q 244.828 514.455 245.517 516.223 Q 246.206 517.991 246.206 520.515 L 246.206 521.81 L 231.414 521.81 L 231.414 519.087 L 244.33 519.087 L 242.62 519.983 Q 242.62 518.273 242.089 516.97 Q 241.557 515.667 240.52 514.936 Q 239.482 514.206 237.922 514.206 Q 236.378 514.206 235.282 514.953 Q 234.186 515.7 233.614 516.92 Q 233.041 518.141 233.041 519.585 L 233.041 521.444 Q 233.041 523.353 233.697 524.673 Q 234.352 525.993 235.531 526.665 Q 236.71 527.338 238.27 527.338 Q 239.3 527.338 240.13 527.047 Q 240.96 526.757 241.566 526.167 Q 242.172 525.578 242.487 524.715 L 245.924 525.528 Q 245.475 526.956 244.421 528.052 Q 243.367 529.147 241.798 529.753 Q 240.229 530.359 238.237 530.359 Z M 256.858 530.359 Q 254.849 530.359 253.28 529.778 Q 251.712 529.197 250.707 528.06 Q 249.703 526.923 249.371 525.279 L 252.807 524.565 Q 253.189 526.01 254.235 526.707 Q 255.281 527.404 256.891 527.404 Q 258.651 527.404 259.697 526.665 Q 260.743 525.927 260.743 524.897 Q 260.743 524.001 260.104 523.42 Q 259.464 522.839 258.136 522.557 L 255.015 521.843 Q 252.425 521.262 251.164 519.983 Q 249.902 518.705 249.902 516.713 Q 249.902 515.053 250.832 513.808 Q 251.761 512.562 253.372 511.873 Q 254.982 511.185 257.09 511.185 Q 259.099 511.185 260.527 511.766 Q 261.955 512.347 262.843 513.393 Q 263.731 514.438 264.113 515.816 L 260.842 516.53 Q 260.494 515.551 259.63 514.812 Q 258.767 514.073 257.124 514.073 Q 255.613 514.073 254.6 514.754 Q 253.588 515.435 253.588 516.48 Q 253.588 517.41 254.26 517.983 Q 254.932 518.556 256.46 518.904 L 259.448 519.568 Q 262.021 520.149 263.266 521.394 Q 264.511 522.64 264.511 524.582 Q 264.511 526.275 263.54 527.579 Q 262.569 528.882 260.851 529.621 Q 259.132 530.359 256.858 530.359 Z  M 282.771 530.393 Q 281.012 530.393 279.584 529.737 Q 278.156 529.081 277.326 527.819 Q 276.496 526.558 276.496 524.731 Q 276.496 523.154 277.102 522.142 Q 277.708 521.129 278.746 520.531 Q 279.783 519.934 281.053 519.635 Q 282.323 519.336 283.635 519.186 Q 285.278 518.987 286.308 518.863 Q 287.337 518.738 287.827 518.448 Q 288.316 518.157 288.316 517.51 L 288.316 517.41 Q 288.316 516.364 287.918 515.65 Q 287.519 514.936 286.731 514.546 Q 285.942 514.156 284.764 514.156 Q 283.552 514.156 282.68 514.53 Q 281.809 514.903 281.269 515.484 Q 280.729 516.065 280.464 516.696 L 277.027 515.8 Q 277.658 514.14 278.837 513.127 Q 280.016 512.114 281.543 511.649 Q 283.07 511.185 284.697 511.185 Q 285.826 511.185 287.088 511.45 Q 288.35 511.716 289.462 512.413 Q 290.574 513.11 291.271 514.372 Q 291.969 515.634 291.969 517.659 L 291.969 529.978 L 288.433 529.978 L 288.433 527.437 L 288.25 527.437 Q 287.885 528.151 287.171 528.832 Q 286.457 529.513 285.37 529.953 Q 284.282 530.393 282.771 530.393 Z M 283.585 527.454 Q 285.079 527.454 286.142 526.873 Q 287.204 526.292 287.768 525.329 Q 288.333 524.366 288.333 523.287 L 288.333 520.913 Q 288.134 521.112 287.578 521.27 Q 287.021 521.428 286.308 521.552 Q 285.594 521.677 284.93 521.76 Q 284.266 521.843 283.834 521.893 Q 282.805 522.025 281.95 522.341 Q 281.095 522.656 280.588 523.237 Q 280.082 523.818 280.082 524.781 Q 280.082 525.661 280.538 526.259 Q 280.995 526.856 281.775 527.155 Q 282.556 527.454 283.585 527.454 Z  M 315.14 511.417 L 315.14 514.389 L 303.818 514.389 L 303.818 511.417 Z M 307.337 529.978 L 307.337 509.292 Q 307.337 507.565 308.109 506.403 Q 308.881 505.241 310.143 504.66 Q 311.404 504.079 312.865 504.079 Q 313.978 504.079 314.766 504.262 Q 315.555 504.444 315.92 504.577 L 315.073 507.532 Q 314.808 507.449 314.418 507.358 Q 314.028 507.267 313.446 507.267 Q 312.152 507.267 311.57 507.914 Q 310.989 508.561 310.989 509.79 L 310.989 529.978 Z M 325.939 530.359 Q 323.2 530.359 321.207 529.181 Q 319.215 528.002 318.144 525.86 Q 317.074 523.719 317.074 520.83 Q 317.074 517.975 318.128 515.8 Q 319.182 513.625 321.108 512.405 Q 323.034 511.185 325.623 511.185 Q 327.217 511.185 328.695 511.707 Q 330.172 512.23 331.351 513.343 Q 332.53 514.455 333.219 516.223 Q 333.908 517.991 333.908 520.515 L 333.908 521.81 L 319.116 521.81 L 319.116 519.087 L 332.032 519.087 L 330.322 519.983 Q 330.322 518.273 329.79 516.97 Q 329.259 515.667 328.221 514.936 Q 327.184 514.206 325.623 514.206 Q 324.079 514.206 322.984 514.953 Q 321.888 515.7 321.315 516.92 Q 320.742 518.141 320.742 519.585 L 320.742 521.444 Q 320.742 523.353 321.398 524.673 Q 322.054 525.993 323.233 526.665 Q 324.411 527.338 325.972 527.338 Q 327.001 527.338 327.831 527.047 Q 328.661 526.757 329.267 526.167 Q 329.873 525.578 330.189 524.715 L 333.625 525.528 Q 333.177 526.956 332.123 528.052 Q 331.069 529.147 329.5 529.753 Q 327.931 530.359 325.939 530.359 Z M 345.904 530.359 Q 343.165 530.359 341.173 529.181 Q 339.181 528.002 338.11 525.86 Q 337.039 523.719 337.039 520.83 Q 337.039 517.975 338.093 515.8 Q 339.148 513.625 341.073 512.405 Q 342.999 511.185 345.589 511.185 Q 347.183 511.185 348.66 511.707 Q 350.138 512.23 351.317 513.343 Q 352.495 514.455 353.184 516.223 Q 353.873 517.991 353.873 520.515 L 353.873 521.81 L 339.081 521.81 L 339.081 519.087 L 351.997 519.087 L 350.287 519.983 Q 350.287 518.273 349.756 516.97 Q 349.225 515.667 348.187 514.936 Q 347.15 514.206 345.589 514.206 Q 344.045 514.206 342.949 514.953 Q 341.854 515.7 341.281 516.92 Q 340.708 518.141 340.708 519.585 L 340.708 521.444 Q 340.708 523.353 341.364 524.673 Q 342.02 525.993 343.198 526.665 Q 344.377 527.338 345.938 527.338 Q 346.967 527.338 347.797 527.047 Q 348.627 526.757 349.233 526.167 Q 349.839 525.578 350.154 524.715 L 353.591 525.528 Q 353.143 526.956 352.089 528.052 Q 351.034 529.147 349.465 529.753 Q 347.897 530.359 345.904 530.359 Z M 364.774 530.343 Q 362.517 530.343 360.757 529.189 Q 358.997 528.035 358.001 525.885 Q 357.005 523.735 357.005 520.747 Q 357.005 517.726 358.018 515.584 Q 359.03 513.442 360.79 512.313 Q 362.55 511.185 364.774 511.185 Q 366.501 511.185 367.555 511.757 Q 368.609 512.33 369.207 513.094 Q 369.805 513.857 370.12 514.438 L 370.319 514.438 L 370.319 505.241 L 373.972 505.241 L 373.972 529.978 L 370.419 529.978 L 370.419 527.072 L 370.12 527.072 Q 369.805 527.67 369.19 528.434 Q 368.576 529.197 367.514 529.77 Q 366.451 530.343 364.774 530.343 Z M 365.571 527.238 Q 367.132 527.238 368.203 526.408 Q 369.273 525.578 369.83 524.109 Q 370.386 522.64 370.386 520.714 Q 370.386 518.771 369.838 517.335 Q 369.29 515.899 368.219 515.094 Q 367.148 514.289 365.571 514.289 Q 363.961 514.289 362.89 515.136 Q 361.819 515.982 361.28 517.435 Q 360.74 518.888 360.74 520.714 Q 360.74 522.557 361.288 524.034 Q 361.836 525.512 362.915 526.375 Q 363.994 527.238 365.571 527.238 Z M 410.433 517.975 L 410.433 521.129 L 376.433 521.129 L 376.433 517.975 Z M 420.692 530.359 Q 418.086 530.359 416.135 529.164 Q 414.185 527.969 413.106 525.811 Q 412.026 523.652 412.026 520.797 Q 412.026 517.908 413.106 515.742 Q 414.185 513.575 416.135 512.38 Q 418.086 511.185 420.692 511.185 Q 423.316 511.185 425.266 512.38 Q 427.217 513.575 428.296 515.742 Q 429.375 517.908 429.375 520.797 Q 429.375 523.652 428.296 525.811 Q 427.217 527.969 425.266 529.164 Q 423.316 530.359 420.692 530.359 Z M 420.692 527.271 Q 422.386 527.271 423.49 526.383 Q 424.594 525.495 425.133 524.026 Q 425.673 522.557 425.673 520.797 Q 425.673 519.02 425.133 517.535 Q 424.594 516.049 423.49 515.161 Q 422.386 514.272 420.692 514.272 Q 419.016 514.272 417.92 515.161 Q 416.824 516.049 416.285 517.526 Q 415.745 519.004 415.745 520.797 Q 415.745 522.557 416.285 524.026 Q 416.824 525.495 417.92 526.383 Q 419.016 527.271 420.692 527.271 Z M 433.432 529.978 L 433.432 511.417 L 436.968 511.417 L 436.968 514.405 L 437.167 514.405 Q 437.682 512.878 438.96 512.015 Q 440.238 511.151 441.865 511.151 Q 442.214 511.151 442.662 511.176 Q 443.111 511.201 443.409 511.251 L 443.409 514.737 Q 443.21 514.671 442.646 514.604 Q 442.081 514.538 441.5 514.538 Q 440.238 514.538 439.226 515.069 Q 438.213 515.601 437.649 516.539 Q 437.084 517.477 437.084 518.705 L 437.084 529.978 Z  M 460.838 530.393 Q 459.078 530.393 457.651 529.737 Q 456.223 529.081 455.393 527.819 Q 454.563 526.558 454.563 524.731 Q 454.563 523.154 455.169 522.142 Q 455.775 521.129 456.812 520.531 Q 457.85 519.934 459.12 519.635 Q 460.39 519.336 461.701 519.186 Q 463.345 518.987 464.374 518.863 Q 465.403 518.738 465.893 518.448 Q 466.383 518.157 466.383 517.51 L 466.383 517.41 Q 466.383 516.364 465.985 515.65 Q 465.586 514.936 464.798 514.546 Q 464.009 514.156 462.83 514.156 Q 461.618 514.156 460.747 514.53 Q 459.875 514.903 459.336 515.484 Q 458.796 516.065 458.53 516.696 L 455.094 515.8 Q 455.725 514.14 456.903 513.127 Q 458.082 512.114 459.61 511.649 Q 461.137 511.185 462.764 511.185 Q 463.893 511.185 465.154 511.45 Q 466.416 511.716 467.528 512.413 Q 468.641 513.11 469.338 514.372 Q 470.035 515.634 470.035 517.659 L 470.035 529.978 L 466.499 529.978 L 466.499 527.437 L 466.317 527.437 Q 465.951 528.151 465.237 528.832 Q 464.524 529.513 463.436 529.953 Q 462.349 530.393 460.838 530.393 Z M 461.652 527.454 Q 463.146 527.454 464.208 526.873 Q 465.271 526.292 465.835 525.329 Q 466.4 524.366 466.4 523.287 L 466.4 520.913 Q 466.2 521.112 465.644 521.27 Q 465.088 521.428 464.374 521.552 Q 463.66 521.677 462.996 521.76 Q 462.332 521.843 461.901 521.893 Q 460.871 522.025 460.016 522.341 Q 459.161 522.656 458.655 523.237 Q 458.149 523.818 458.149 524.781 Q 458.149 525.661 458.605 526.259 Q 459.062 526.856 459.842 527.155 Q 460.622 527.454 461.652 527.454 Z  M 487.662 518.987 L 487.662 529.978 L 484.009 529.978 L 484.009 505.241 L 487.628 505.241 L 487.628 515.966 L 487.147 515.966 Q 487.96 513.476 489.504 512.33 Q 491.048 511.185 493.24 511.185 Q 495.132 511.185 496.552 511.981 Q 497.971 512.778 498.76 514.331 Q 499.548 515.883 499.548 518.19 L 499.548 529.978 L 495.896 529.978 L 495.896 518.639 Q 495.896 516.63 494.85 515.501 Q 493.804 514.372 491.978 514.372 Q 490.749 514.372 489.77 514.912 Q 488.79 515.451 488.226 516.48 Q 487.662 517.51 487.662 518.987 Z M 509.666 530.393 Q 507.906 530.393 506.478 529.737 Q 505.05 529.081 504.22 527.819 Q 503.39 526.558 503.39 524.731 Q 503.39 523.154 503.996 522.142 Q 504.602 521.129 505.64 520.531 Q 506.677 519.934 507.947 519.635 Q 509.217 519.336 510.529 519.186 Q 512.172 518.987 513.202 518.863 Q 514.231 518.738 514.721 518.448 Q 515.21 518.157 515.21 517.51 L 515.21 517.41 Q 515.21 516.364 514.812 515.65 Q 514.414 514.936 513.625 514.546 Q 512.836 514.156 511.658 514.156 Q 510.446 514.156 509.574 514.53 Q 508.703 514.903 508.163 515.484 Q 507.624 516.065 507.358 516.696 L 503.921 515.8 Q 504.552 514.14 505.731 513.127 Q 506.91 512.114 508.437 511.649 Q 509.964 511.185 511.591 511.185 Q 512.72 511.185 513.982 511.45 Q 515.244 511.716 516.356 512.413 Q 517.468 513.11 518.166 514.372 Q 518.863 515.634 518.863 517.659 L 518.863 529.978 L 515.327 529.978 L 515.327 527.437 L 515.144 527.437 Q 514.779 528.151 514.065 528.832 Q 513.351 529.513 512.264 529.953 Q 511.176 530.393 509.666 530.393 Z M 510.479 527.454 Q 511.973 527.454 513.036 526.873 Q 514.098 526.292 514.663 525.329 Q 515.227 524.366 515.227 523.287 L 515.227 520.913 Q 515.028 521.112 514.472 521.27 Q 513.916 521.428 513.202 521.552 Q 512.488 521.677 511.824 521.76 Q 511.16 521.843 510.728 521.893 Q 509.699 522.025 508.844 522.341 Q 507.989 522.656 507.482 523.237 Q 506.976 523.818 506.976 524.781 Q 506.976 525.661 507.433 526.259 Q 507.889 526.856 508.669 527.155 Q 509.45 527.454 510.479 527.454 Z M 527.429 518.987 L 527.429 529.978 L 523.776 529.978 L 523.776 511.417 L 527.263 511.417 L 527.296 515.966 L 526.914 515.966 Q 527.727 513.476 529.271 512.33 Q 530.815 511.185 533.007 511.185 Q 534.899 511.185 536.31 511.981 Q 537.722 512.778 538.518 514.331 Q 539.315 515.883 539.315 518.19 L 539.315 529.978 L 535.663 529.978 L 535.663 518.639 Q 535.663 516.63 534.617 515.501 Q 533.571 514.372 531.745 514.372 Q 530.516 514.372 529.537 514.912 Q 528.557 515.451 527.993 516.48 Q 527.429 517.51 527.429 518.987 Z M 551.129 530.343 Q 548.871 530.343 547.111 529.189 Q 545.352 528.035 544.355 525.885 Q 543.359 523.735 543.359 520.747 Q 543.359 517.726 544.372 515.584 Q 545.385 513.442 547.145 512.313 Q 548.904 511.185 551.129 511.185 Q 552.855 511.185 553.91 511.757 Q 554.964 512.33 555.562 513.094 Q 556.159 513.857 556.475 514.438 L 556.674 514.438 L 556.674 505.241 L 560.326 505.241 L 560.326 529.978 L 556.773 529.978 L 556.773 527.072 L 556.475 527.072 Q 556.159 527.67 555.545 528.434 Q 554.931 529.197 553.868 529.77 Q 552.806 530.343 551.129 530.343 Z M 551.926 527.238 Q 553.486 527.238 554.557 526.408 Q 555.628 525.578 556.184 524.109 Q 556.74 522.64 556.74 520.714 Q 556.74 518.771 556.192 517.335 Q 555.645 515.899 554.574 515.094 Q 553.503 514.289 551.926 514.289 Q 550.315 514.289 549.245 515.136 Q 548.174 515.982 547.634 517.435 Q 547.095 518.888 547.095 520.714 Q 547.095 522.557 547.643 524.034 Q 548.19 525.512 549.27 526.375 Q 550.349 527.238 551.926 527.238 Z M 573.047 530.359 Q 570.44 530.359 568.49 529.164 Q 566.539 527.969 565.46 525.811 Q 564.381 523.652 564.381 520.797 Q 564.381 517.908 565.46 515.742 Q 566.539 513.575 568.49 512.38 Q 570.44 511.185 573.047 511.185 Q 575.67 511.185 577.621 512.38 Q 579.571 513.575 580.65 515.742 Q 581.73 517.908 581.73 520.797 Q 581.73 523.652 580.65 525.811 Q 579.571 527.969 577.621 529.164 Q 575.67 530.359 573.047 530.359 Z M 573.047 527.271 Q 574.74 527.271 575.844 526.383 Q 576.948 525.495 577.488 524.026 Q 578.027 522.557 578.027 520.797 Q 578.027 519.02 577.488 517.535 Q 576.948 516.049 575.844 515.161 Q 574.74 514.272 573.047 514.272 Q 571.37 514.272 570.274 515.161 Q 569.179 516.049 568.639 517.526 Q 568.1 519.004 568.1 520.797 Q 568.1 522.557 568.639 524.026 Q 569.179 525.495 570.274 526.383 Q 571.37 527.271 573.047 527.271 Z M 594.984 511.417 L 594.984 514.389 L 583.661 514.389 L 583.661 511.417 Z M 587.181 529.978 L 587.181 509.292 Q 587.181 507.565 587.953 506.403 Q 588.725 505.241 589.986 504.66 Q 591.248 504.079 592.709 504.079 Q 593.821 504.079 594.61 504.262 Q 595.399 504.444 595.764 504.577 L 594.917 507.532 Q 594.652 507.449 594.261 507.358 Q 593.871 507.267 593.29 507.267 Q 591.995 507.267 591.414 507.914 Q 590.833 508.561 590.833 509.79 L 590.833 529.978 Z M 606.526 511.417 L 606.526 514.389 L 595.204 514.389 L 595.204 511.417 Z M 598.724 529.978 L 598.724 509.292 Q 598.724 507.565 599.495 506.403 Q 600.267 505.241 601.529 504.66 Q 602.791 504.079 604.252 504.079 Q 605.364 504.079 606.153 504.262 Q 606.941 504.444 607.307 504.577 L 606.46 507.532 Q 606.194 507.449 605.804 507.358 Q 605.414 507.267 604.833 507.267 Q 603.538 507.267 602.957 507.914 Q 602.376 508.561 602.376 509.79 L 602.376 529.978 Z M 611.01 530.227 Q 609.981 530.227 609.267 529.513 Q 608.553 528.799 608.553 527.786 Q 608.553 526.757 609.267 526.051 Q 609.981 525.346 611.01 525.346 Q 612.023 525.346 612.737 526.051 Q 613.45 526.757 613.45 527.786 Q 613.45 528.799 612.737 529.513 Q 612.023 530.227 611.01 530.227 Z" fill="#B8C0D9"/></g><rect id="cta-rule" x="135.6" y="822.8" width="733.2" height="3" fill="#F7F8FC"/><rect id="cta-marker" x="135.6" y="838.8" width="11" height="40" fill="#FDCB6E"/><g id="cta" role="group" aria-label="INSTALL @GLYPHKILN/CORE →"><path id="cta-line-0" d="M 172.045 849.036 L 172.045 870.863 L 167.578 870.863 L 167.578 849.036 Z M 175.998 870.863 L 175.998 849.036 L 180.979 849.036 L 187.878 860.081 Q 188.405 860.931 188.947 861.927 Q 189.489 862.923 190.053 864.139 Q 190.617 865.355 191.174 866.878 L 190.72 866.878 Q 190.617 865.662 190.537 864.285 Q 190.456 862.908 190.397 861.649 Q 190.339 860.389 190.339 859.51 L 190.339 849.036 L 194.909 849.036 L 194.909 870.863 L 189.914 870.863 L 183.645 860.843 Q 182.956 859.715 182.37 858.653 Q 181.784 857.591 181.147 856.309 Q 180.51 855.028 179.631 853.24 L 180.202 853.24 Q 180.29 854.822 180.378 856.273 Q 180.466 857.723 180.517 858.902 Q 180.568 860.081 180.568 860.828 L 180.568 870.863 Z M 206.86 871.185 Q 204.238 871.185 202.297 870.379 Q 200.356 869.573 199.272 867.991 Q 198.188 866.409 198.129 864.095 L 202.48 864.095 Q 202.568 865.194 203.139 865.933 Q 203.71 866.673 204.662 867.039 Q 205.615 867.405 206.816 867.405 Q 208.017 867.405 208.903 867.061 Q 209.789 866.717 210.287 866.087 Q 210.785 865.457 210.785 864.622 Q 210.785 863.875 210.339 863.37 Q 209.892 862.864 209.057 862.498 Q 208.222 862.132 207.021 861.854 L 204.618 861.253 Q 201.85 860.579 200.283 859.136 Q 198.715 857.694 198.715 855.321 Q 198.715 853.343 199.777 851.863 Q 200.839 850.384 202.692 849.564 Q 204.545 848.743 206.918 848.743 Q 209.335 848.743 211.137 849.571 Q 212.939 850.399 213.95 851.871 Q 214.96 853.343 214.99 855.262 L 210.668 855.262 Q 210.551 853.944 209.548 853.226 Q 208.544 852.508 206.874 852.508 Q 205.746 852.508 204.941 852.83 Q 204.135 853.153 203.718 853.724 Q 203.3 854.295 203.3 855.028 Q 203.3 855.833 203.784 856.368 Q 204.267 856.903 205.073 857.232 Q 205.878 857.562 206.786 857.781 L 208.764 858.265 Q 210.141 858.572 211.327 859.1 Q 212.514 859.627 213.408 860.396 Q 214.301 861.165 214.792 862.22 Q 215.283 863.275 215.283 864.652 Q 215.283 866.629 214.286 868.101 Q 213.29 869.573 211.401 870.379 Q 209.511 871.185 206.86 871.185 Z M 217.401 852.742 L 217.401 849.036 L 235.228 849.036 L 235.228 852.742 L 228.563 852.742 L 228.563 870.863 L 224.08 870.863 L 224.08 852.742 Z M 234.382 870.863 L 241.838 849.036 L 247.697 849.036 L 255.344 870.863 L 250.378 870.863 L 246.877 860.33 Q 246.247 858.294 245.595 855.87 Q 244.944 853.446 244.226 850.574 L 245.207 850.574 Q 244.504 853.46 243.896 855.899 Q 243.288 858.338 242.688 860.33 L 239.319 870.863 Z M 239.04 865.794 L 239.04 862.293 L 250.686 862.293 L 250.686 865.794 Z M 258.041 870.863 L 258.041 849.036 L 262.509 849.036 L 262.509 867.156 L 271.927 867.156 L 271.927 870.863 Z M 275.004 870.863 L 275.004 849.036 L 279.471 849.036 L 279.471 867.156 L 288.89 867.156 L 288.89 870.863 Z  M 312.654 873.924 Q 309.285 873.924 306.656 873.001 Q 304.026 872.078 302.195 870.306 Q 300.364 868.533 299.419 865.963 Q 298.475 863.392 298.475 860.096 Q 298.475 856.932 299.39 854.346 Q 300.306 851.761 302.093 849.886 Q 303.88 848.011 306.509 847 Q 309.139 845.989 312.537 845.989 Q 315.716 845.989 318.243 846.934 Q 320.769 847.879 322.549 849.578 Q 324.329 851.278 325.267 853.57 Q 326.204 855.863 326.204 858.558 Q 326.204 860.389 325.867 861.971 Q 325.53 863.553 324.805 864.739 Q 324.08 865.926 322.93 866.592 Q 321.78 867.259 320.14 867.259 Q 319.187 867.259 318.338 867.003 Q 317.488 866.746 316.917 866.197 Q 316.346 865.648 316.199 864.813 L 316.082 864.813 Q 315.686 865.911 314.537 866.592 Q 313.387 867.274 311.658 867.274 Q 309.651 867.274 308.245 866.351 Q 306.839 865.428 306.099 863.78 Q 305.359 862.132 305.359 859.949 Q 305.359 857.796 306.165 856.148 Q 306.971 854.5 308.413 853.57 Q 309.856 852.64 311.746 852.64 Q 313.182 852.64 314.214 853.153 Q 315.247 853.665 315.672 854.471 L 315.833 854.471 L 315.833 852.977 L 318.851 852.977 L 318.851 862.864 Q 318.851 863.568 319.173 863.978 Q 319.495 864.388 320.169 864.388 Q 321.092 864.388 321.634 863.795 Q 322.176 863.201 322.41 861.978 Q 322.644 860.755 322.644 858.851 Q 322.644 856.712 322.029 854.962 Q 321.414 853.211 320.184 851.951 Q 318.953 850.692 317.107 850.01 Q 315.262 849.329 312.801 849.329 Q 310.208 849.329 308.223 850.054 Q 306.238 850.779 304.891 852.156 Q 303.543 853.533 302.862 855.518 Q 302.181 857.503 302.181 860.008 Q 302.181 862.557 302.876 864.527 Q 303.572 866.497 304.942 867.838 Q 306.311 869.178 308.326 869.866 Q 310.34 870.555 312.991 870.555 Q 314.192 870.555 315.291 870.379 Q 316.39 870.203 317.298 869.94 Q 318.206 869.676 318.807 869.427 L 319.964 872.474 Q 319.246 872.825 318.103 873.162 Q 316.961 873.499 315.569 873.712 Q 314.178 873.924 312.654 873.924 Z M 312.068 864.154 Q 313.284 864.154 314.075 863.67 Q 314.866 863.187 315.254 862.235 Q 315.642 861.282 315.642 859.891 Q 315.642 858.485 315.24 857.62 Q 314.837 856.756 314.046 856.361 Q 313.255 855.965 312.112 855.965 Q 310.999 855.965 310.215 856.463 Q 309.432 856.961 309.021 857.84 Q 308.611 858.719 308.611 859.876 Q 308.611 861.107 308.985 862.073 Q 309.358 863.04 310.127 863.597 Q 310.896 864.154 312.068 864.154 Z M 339.221 871.155 Q 336.159 871.155 333.852 869.8 Q 331.545 868.446 330.248 865.933 Q 328.952 863.421 328.952 859.979 Q 328.952 856.434 330.3 853.922 Q 331.647 851.409 333.947 850.076 Q 336.247 848.743 339.118 848.743 Q 340.964 848.743 342.553 849.278 Q 344.143 849.813 345.38 850.794 Q 346.618 851.776 347.402 853.116 Q 348.185 854.456 348.42 856.082 L 343.879 856.082 Q 343.644 855.291 343.227 854.669 Q 342.81 854.046 342.216 853.607 Q 341.623 853.167 340.861 852.94 Q 340.1 852.713 339.191 852.713 Q 337.507 852.713 336.218 853.555 Q 334.929 854.398 334.211 856.009 Q 333.493 857.62 333.493 859.935 Q 333.493 862.249 334.204 863.868 Q 334.914 865.487 336.203 866.336 Q 337.492 867.186 339.25 867.186 Q 340.832 867.186 341.96 866.614 Q 343.088 866.043 343.696 864.981 Q 344.304 863.919 344.304 862.498 L 345.241 862.63 L 339.558 862.63 L 339.558 859.232 L 348.64 859.232 L 348.64 861.956 Q 348.64 864.827 347.424 866.885 Q 346.208 868.944 344.084 870.05 Q 341.96 871.155 339.221 871.155 Z M 352.07 870.863 L 352.07 849.036 L 356.538 849.036 L 356.538 867.156 L 365.957 867.156 L 365.957 870.863 Z M 373.258 870.863 L 373.258 862.659 L 365.172 849.036 L 370.402 849.036 L 374.093 855.833 Q 374.665 856.859 375.104 857.869 Q 375.543 858.88 376.012 860.286 L 375.031 860.286 Q 375.485 858.865 375.91 857.855 Q 376.334 856.844 376.876 855.833 L 380.451 849.036 L 385.666 849.036 L 377.711 862.659 L 377.711 870.863 Z M 388.36 870.863 L 388.36 849.036 L 396.87 849.036 Q 399.361 849.036 401.104 849.981 Q 402.847 850.926 403.763 852.589 Q 404.678 854.251 404.678 856.404 Q 404.678 858.572 403.748 860.22 Q 402.818 861.868 401.053 862.799 Q 399.287 863.729 396.768 863.729 L 391.289 863.729 L 391.289 860.125 L 396.05 860.125 Q 397.427 860.125 398.313 859.649 Q 399.2 859.173 399.632 858.338 Q 400.064 857.503 400.064 856.404 Q 400.064 855.306 399.632 854.478 Q 399.2 853.651 398.306 853.189 Q 397.412 852.728 396.035 852.728 L 392.827 852.728 L 392.827 870.863 Z M 407.805 870.863 L 407.805 849.036 L 412.272 849.036 L 412.272 857.855 L 421.779 857.855 L 421.779 849.036 L 426.262 849.036 L 426.262 870.863 L 421.779 870.863 L 421.779 861.561 L 412.272 861.561 L 412.272 870.863 Z M 433.506 865.926 L 433.506 861.854 Q 434.18 860.638 434.825 859.613 Q 435.469 858.587 436.245 857.554 Q 437.022 856.522 438.018 855.306 L 443.365 849.036 L 448.828 849.036 L 439.615 859.7 L 439.248 859.569 Z M 430.21 870.863 L 430.21 849.036 L 434.678 849.036 L 434.678 854.998 L 434.605 860.565 L 434.678 862.747 L 434.678 870.863 Z M 443.775 870.863 L 437.3 861.019 L 440.127 857.679 L 449.063 870.863 Z M 456.25 849.036 L 456.25 870.863 L 451.782 870.863 L 451.782 849.036 Z M 460.203 870.863 L 460.203 849.036 L 464.671 849.036 L 464.671 867.156 L 474.09 867.156 L 474.09 870.863 Z M 477.166 870.863 L 477.166 849.036 L 482.146 849.036 L 489.046 860.081 Q 489.573 860.931 490.115 861.927 Q 490.657 862.923 491.221 864.139 Q 491.785 865.355 492.342 866.878 L 491.888 866.878 Q 491.785 865.662 491.704 864.285 Q 491.624 862.908 491.565 861.649 Q 491.507 860.389 491.507 859.51 L 491.507 849.036 L 496.077 849.036 L 496.077 870.863 L 491.082 870.863 L 484.812 860.843 Q 484.124 859.715 483.538 858.653 Q 482.952 857.591 482.315 856.309 Q 481.678 855.028 480.799 853.24 L 481.37 853.24 Q 481.458 854.822 481.546 856.273 Q 481.634 857.723 481.685 858.902 Q 481.736 860.081 481.736 860.828 L 481.736 870.863 Z M 509.302 848.011 L 502.271 874.144 L 498.462 874.144 L 505.493 848.011 Z M 521.215 871.155 Q 518.314 871.155 516.022 869.837 Q 513.729 868.519 512.404 866.014 Q 511.078 863.509 511.078 859.964 Q 511.078 856.404 512.411 853.892 Q 513.744 851.38 516.044 850.062 Q 518.344 848.743 521.215 848.743 Q 523.075 848.743 524.679 849.263 Q 526.283 849.783 527.528 850.779 Q 528.773 851.776 529.564 853.218 Q 530.355 854.661 530.604 856.507 L 526.078 856.507 Q 525.931 855.599 525.514 854.903 Q 525.096 854.207 524.474 853.717 Q 523.851 853.226 523.046 852.969 Q 522.24 852.713 521.303 852.713 Q 519.603 852.713 518.322 853.563 Q 517.04 854.412 516.329 856.031 Q 515.619 857.65 515.619 859.964 Q 515.619 862.322 516.337 863.934 Q 517.054 865.545 518.329 866.365 Q 519.603 867.186 521.288 867.186 Q 522.225 867.186 523.024 866.929 Q 523.822 866.673 524.459 866.182 Q 525.096 865.692 525.514 864.988 Q 525.931 864.285 526.093 863.392 L 530.619 863.392 Q 530.443 864.915 529.718 866.307 Q 528.993 867.698 527.792 868.797 Q 526.591 869.896 524.935 870.526 Q 523.28 871.155 521.215 871.155 Z M 543.449 871.155 Q 540.564 871.155 538.257 869.837 Q 535.949 868.519 534.609 866.014 Q 533.269 863.509 533.269 859.964 Q 533.269 856.404 534.609 853.892 Q 535.949 851.38 538.257 850.062 Q 540.564 848.743 543.449 848.743 Q 546.35 848.743 548.65 850.062 Q 550.949 851.38 552.29 853.892 Q 553.63 856.404 553.63 859.964 Q 553.63 863.509 552.29 866.014 Q 550.949 868.519 548.65 869.837 Q 546.35 871.155 543.449 871.155 Z M 543.449 867.186 Q 545.149 867.186 546.416 866.358 Q 547.683 865.53 548.386 863.912 Q 549.089 862.293 549.089 859.964 Q 549.089 857.606 548.386 855.987 Q 547.683 854.368 546.416 853.541 Q 545.149 852.713 543.449 852.713 Q 541.765 852.713 540.49 853.548 Q 539.216 854.383 538.513 856.002 Q 537.81 857.62 537.81 859.964 Q 537.81 862.293 538.513 863.904 Q 539.216 865.516 540.49 866.351 Q 541.765 867.186 543.449 867.186 Z M 556.983 870.863 L 556.983 849.036 L 565.494 849.036 Q 567.984 849.036 569.727 849.915 Q 571.47 850.794 572.386 852.391 Q 573.301 853.988 573.301 856.141 Q 573.301 858.294 572.371 859.854 Q 571.441 861.414 569.676 862.242 Q 567.911 863.07 565.391 863.07 L 559.62 863.07 L 559.62 859.451 L 564.673 859.451 Q 566.05 859.451 566.929 859.078 Q 567.808 858.704 568.248 857.965 Q 568.687 857.225 568.687 856.141 Q 568.687 855.028 568.248 854.273 Q 567.808 853.519 566.922 853.123 Q 566.036 852.728 564.659 852.728 L 561.451 852.728 L 561.451 870.863 Z M 569.126 870.863 L 563.809 860.931 L 568.658 860.931 L 574.078 870.863 Z M 576.685 870.863 L 576.685 849.036 L 591.29 849.036 L 591.29 852.742 L 581.153 852.742 L 581.153 858.016 L 590.528 858.016 L 590.528 861.663 L 581.153 861.663 L 581.153 867.156 L 591.319 867.156 L 591.319 870.863 Z  M 615.082 871.932 L 612.665 869.529 L 616.078 866.131 Q 616.62 865.574 617.375 864.952 Q 618.129 864.329 618.935 863.699 Q 619.74 863.07 620.458 862.535 Q 621.176 862 621.674 861.634 L 621.498 862.41 Q 620.927 862.528 620.107 862.689 Q 619.286 862.85 618.407 862.96 Q 617.528 863.07 616.796 863.07 L 603.788 863.07 L 603.788 859.569 L 616.796 859.569 Q 617.528 859.569 618.407 859.678 Q 619.286 859.788 620.107 859.942 Q 620.927 860.096 621.498 860.228 L 621.674 861.004 Q 621.015 860.521 619.997 859.759 Q 618.979 858.997 617.924 858.148 Q 616.869 857.298 616.078 856.507 L 612.65 853.094 L 615.067 850.692 L 625.702 861.312 Z" fill="#F7F8FC"/></g></svg>